<mxfile host="app.diagrams.net" agent="Mozilla/5.0 (Windows NT 10.0; Win64; x64) AppleWebKit/537.36 (KHTML, like Gecko) Chrome/135.0.0.0 Safari/537.36" version="26.2.12">
  <diagram name="第 1 页" id="64KJiB0NLU-YJ_9J4Sst">
    <mxGraphModel dx="1630" dy="1607" grid="1" gridSize="10" guides="1" tooltips="1" connect="1" arrows="1" fold="1" page="1" pageScale="1" pageWidth="827" pageHeight="1169" math="0" shadow="0">
      <root>
        <mxCell id="0" />
        <mxCell id="1" parent="0" />
        <mxCell id="_G-EZJmPh7v3S1hzNm8B-1" value="Font Style Transfer" style="ellipse;whiteSpace=wrap;html=1;align=center;newEdgeStyle={&quot;edgeStyle&quot;:&quot;entityRelationEdgeStyle&quot;,&quot;startArrow&quot;:&quot;none&quot;,&quot;endArrow&quot;:&quot;none&quot;,&quot;segment&quot;:10,&quot;curved&quot;:1,&quot;sourcePerimeterSpacing&quot;:0,&quot;targetPerimeterSpacing&quot;:0};treeFolding=1;treeMoving=1;fillColor=#f8cecc;strokeColor=#b85450;fontFamily=Comic Sans MS;" parent="1" vertex="1">
          <mxGeometry x="150" y="280" width="120" height="40" as="geometry" />
        </mxCell>
        <mxCell id="_G-EZJmPh7v3S1hzNm8B-4" value="Methodology" style="whiteSpace=wrap;html=1;rounded=1;arcSize=50;align=center;verticalAlign=middle;strokeWidth=1;autosize=1;spacing=4;treeFolding=1;treeMoving=1;newEdgeStyle={&quot;edgeStyle&quot;:&quot;entityRelationEdgeStyle&quot;,&quot;startArrow&quot;:&quot;none&quot;,&quot;endArrow&quot;:&quot;none&quot;,&quot;segment&quot;:10,&quot;curved&quot;:1,&quot;sourcePerimeterSpacing&quot;:0,&quot;targetPerimeterSpacing&quot;:0};fillColor=#dae8fc;strokeColor=#6c8ebf;fontFamily=Comic Sans MS;" parent="1" vertex="1">
          <mxGeometry x="295" y="285" width="120" height="30" as="geometry" />
        </mxCell>
        <mxCell id="_G-EZJmPh7v3S1hzNm8B-5" value="" style="edgeStyle=entityRelationEdgeStyle;startArrow=none;endArrow=none;segment=10;curved=1;sourcePerimeterSpacing=0;targetPerimeterSpacing=0;rounded=0;fontFamily=Comic Sans MS;" parent="1" source="_G-EZJmPh7v3S1hzNm8B-1" target="_G-EZJmPh7v3S1hzNm8B-4" edge="1">
          <mxGeometry x="350" y="287" width="80" height="26" as="geometry" />
        </mxCell>
        <mxCell id="Lgd5MnXTCpF7ymXs19jn-5" style="edgeStyle=entityRelationEdgeStyle;rounded=0;orthogonalLoop=1;jettySize=auto;html=1;startArrow=none;endArrow=none;segment=10;curved=1;sourcePerimeterSpacing=0;targetPerimeterSpacing=0;entryX=0;entryY=1;entryDx=0;entryDy=0;fontFamily=Comic Sans MS;" parent="1" source="_G-EZJmPh7v3S1hzNm8B-8" target="Lgd5MnXTCpF7ymXs19jn-1" edge="1">
          <mxGeometry relative="1" as="geometry" />
        </mxCell>
        <mxCell id="_G-EZJmPh7v3S1hzNm8B-8" value="Style Feature Extract" style="whiteSpace=wrap;html=1;rounded=1;arcSize=50;align=center;verticalAlign=middle;strokeWidth=1;autosize=1;spacing=4;treeFolding=1;treeMoving=1;newEdgeStyle={&quot;edgeStyle&quot;:&quot;entityRelationEdgeStyle&quot;,&quot;startArrow&quot;:&quot;none&quot;,&quot;endArrow&quot;:&quot;none&quot;,&quot;segment&quot;:10,&quot;curved&quot;:1,&quot;sourcePerimeterSpacing&quot;:0,&quot;targetPerimeterSpacing&quot;:0};fillColor=#d5e8d4;strokeColor=#82b366;fontFamily=Comic Sans MS;" parent="1" vertex="1">
          <mxGeometry x="480" y="140" width="170" height="30" as="geometry" />
        </mxCell>
        <mxCell id="_G-EZJmPh7v3S1hzNm8B-9" value="" style="edgeStyle=entityRelationEdgeStyle;startArrow=none;endArrow=none;segment=10;curved=1;sourcePerimeterSpacing=0;targetPerimeterSpacing=0;rounded=0;fontFamily=Comic Sans MS;" parent="1" source="_G-EZJmPh7v3S1hzNm8B-4" target="_G-EZJmPh7v3S1hzNm8B-8" edge="1">
          <mxGeometry x="490" y="287" width="80" height="26" as="geometry" />
        </mxCell>
        <mxCell id="_G-EZJmPh7v3S1hzNm8B-11" value="Content Feature Extract" style="whiteSpace=wrap;html=1;rounded=1;arcSize=50;align=center;verticalAlign=middle;strokeWidth=1;autosize=1;spacing=4;treeFolding=1;treeMoving=1;newEdgeStyle={&quot;edgeStyle&quot;:&quot;entityRelationEdgeStyle&quot;,&quot;startArrow&quot;:&quot;none&quot;,&quot;endArrow&quot;:&quot;none&quot;,&quot;segment&quot;:10,&quot;curved&quot;:1,&quot;sourcePerimeterSpacing&quot;:0,&quot;targetPerimeterSpacing&quot;:0};fillColor=#d5e8d4;strokeColor=#82b366;fontFamily=Comic Sans MS;" parent="1" vertex="1">
          <mxGeometry x="475" y="-100" width="180" height="30" as="geometry" />
        </mxCell>
        <mxCell id="_G-EZJmPh7v3S1hzNm8B-12" value="" style="edgeStyle=entityRelationEdgeStyle;startArrow=none;endArrow=none;segment=10;curved=1;sourcePerimeterSpacing=0;targetPerimeterSpacing=0;rounded=0;fontFamily=Comic Sans MS;" parent="1" source="_G-EZJmPh7v3S1hzNm8B-4" target="_G-EZJmPh7v3S1hzNm8B-11" edge="1">
          <mxGeometry x="490" y="287" width="80" height="26" as="geometry" />
        </mxCell>
        <mxCell id="_G-EZJmPh7v3S1hzNm8B-13" value="Idea" style="whiteSpace=wrap;html=1;rounded=1;arcSize=50;align=center;verticalAlign=middle;strokeWidth=1;autosize=1;spacing=4;treeFolding=1;treeMoving=1;newEdgeStyle={&quot;edgeStyle&quot;:&quot;entityRelationEdgeStyle&quot;,&quot;startArrow&quot;:&quot;none&quot;,&quot;endArrow&quot;:&quot;none&quot;,&quot;segment&quot;:10,&quot;curved&quot;:1,&quot;sourcePerimeterSpacing&quot;:0,&quot;targetPerimeterSpacing&quot;:0};fillColor=#dae8fc;strokeColor=#6c8ebf;fontFamily=Comic Sans MS;" parent="1" vertex="1">
          <mxGeometry x="15" y="-60" width="70" height="30" as="geometry" />
        </mxCell>
        <mxCell id="_G-EZJmPh7v3S1hzNm8B-14" value="" style="edgeStyle=entityRelationEdgeStyle;startArrow=none;endArrow=none;segment=10;curved=1;sourcePerimeterSpacing=0;targetPerimeterSpacing=0;rounded=0;fontFamily=Comic Sans MS;" parent="1" source="_G-EZJmPh7v3S1hzNm8B-1" target="_G-EZJmPh7v3S1hzNm8B-13" edge="1">
          <mxGeometry x="-10" y="287" width="80" height="26" as="geometry" />
        </mxCell>
        <mxCell id="_G-EZJmPh7v3S1hzNm8B-15" value="Evaluation Metric" style="whiteSpace=wrap;html=1;rounded=1;arcSize=50;align=center;verticalAlign=middle;strokeWidth=1;autosize=1;spacing=4;treeFolding=1;treeMoving=1;newEdgeStyle={&quot;edgeStyle&quot;:&quot;entityRelationEdgeStyle&quot;,&quot;startArrow&quot;:&quot;none&quot;,&quot;endArrow&quot;:&quot;none&quot;,&quot;segment&quot;:10,&quot;curved&quot;:1,&quot;sourcePerimeterSpacing&quot;:0,&quot;targetPerimeterSpacing&quot;:0};fillColor=#dae8fc;strokeColor=#6c8ebf;fontFamily=Comic Sans MS;" parent="1" vertex="1">
          <mxGeometry x="-55" y="910" width="140" height="30" as="geometry" />
        </mxCell>
        <mxCell id="_G-EZJmPh7v3S1hzNm8B-16" value="" style="edgeStyle=entityRelationEdgeStyle;startArrow=none;endArrow=none;segment=10;curved=1;sourcePerimeterSpacing=0;targetPerimeterSpacing=0;rounded=0;fontFamily=Comic Sans MS;" parent="1" source="_G-EZJmPh7v3S1hzNm8B-1" target="_G-EZJmPh7v3S1hzNm8B-15" edge="1">
          <mxGeometry x="-10" y="287" width="80" height="26" as="geometry" />
        </mxCell>
        <mxCell id="_G-EZJmPh7v3S1hzNm8B-17" value="Loss Function" style="whiteSpace=wrap;html=1;rounded=1;arcSize=50;align=center;verticalAlign=middle;strokeWidth=1;autosize=1;spacing=4;treeFolding=1;treeMoving=1;newEdgeStyle={&quot;edgeStyle&quot;:&quot;entityRelationEdgeStyle&quot;,&quot;startArrow&quot;:&quot;none&quot;,&quot;endArrow&quot;:&quot;none&quot;,&quot;segment&quot;:10,&quot;curved&quot;:1,&quot;sourcePerimeterSpacing&quot;:0,&quot;targetPerimeterSpacing&quot;:0};fillColor=#dae8fc;strokeColor=#6c8ebf;fontFamily=Comic Sans MS;" parent="1" vertex="1">
          <mxGeometry x="-45" y="320" width="120" height="30" as="geometry" />
        </mxCell>
        <mxCell id="_G-EZJmPh7v3S1hzNm8B-18" value="" style="edgeStyle=entityRelationEdgeStyle;startArrow=none;endArrow=none;segment=10;curved=1;sourcePerimeterSpacing=0;targetPerimeterSpacing=0;rounded=0;fontFamily=Comic Sans MS;" parent="1" source="_G-EZJmPh7v3S1hzNm8B-1" target="_G-EZJmPh7v3S1hzNm8B-17" edge="1">
          <mxGeometry x="-10" y="287" width="80" height="26" as="geometry" />
        </mxCell>
        <mxCell id="_G-EZJmPh7v3S1hzNm8B-19" value="Dataset" style="whiteSpace=wrap;html=1;rounded=1;arcSize=50;align=center;verticalAlign=middle;strokeWidth=1;autosize=1;spacing=4;treeFolding=1;treeMoving=1;newEdgeStyle={&quot;edgeStyle&quot;:&quot;entityRelationEdgeStyle&quot;,&quot;startArrow&quot;:&quot;none&quot;,&quot;endArrow&quot;:&quot;none&quot;,&quot;segment&quot;:10,&quot;curved&quot;:1,&quot;sourcePerimeterSpacing&quot;:0,&quot;targetPerimeterSpacing&quot;:0};fillColor=#dae8fc;strokeColor=#6c8ebf;fontFamily=Comic Sans MS;" parent="1" vertex="1">
          <mxGeometry x="-20" y="690" width="90" height="30" as="geometry" />
        </mxCell>
        <mxCell id="_G-EZJmPh7v3S1hzNm8B-20" value="" style="edgeStyle=entityRelationEdgeStyle;startArrow=none;endArrow=none;segment=10;curved=1;sourcePerimeterSpacing=0;targetPerimeterSpacing=0;rounded=0;fontFamily=Comic Sans MS;" parent="1" source="_G-EZJmPh7v3S1hzNm8B-1" target="_G-EZJmPh7v3S1hzNm8B-19" edge="1">
          <mxGeometry x="-10" y="287" width="80" height="26" as="geometry" />
        </mxCell>
        <mxCell id="_G-EZJmPh7v3S1hzNm8B-21" value="attribute embedding&lt;div&gt;属性化编码&lt;/div&gt;" style="whiteSpace=wrap;html=1;shape=partialRectangle;top=0;left=0;bottom=1;right=0;points=[[0,1],[1,1]];fillColor=none;align=center;verticalAlign=bottom;routingCenterY=0.5;snapToPoint=1;recursiveResize=0;autosize=1;treeFolding=1;treeMoving=1;newEdgeStyle={&quot;edgeStyle&quot;:&quot;entityRelationEdgeStyle&quot;,&quot;startArrow&quot;:&quot;none&quot;,&quot;endArrow&quot;:&quot;none&quot;,&quot;segment&quot;:10,&quot;curved&quot;:1,&quot;sourcePerimeterSpacing&quot;:0,&quot;targetPerimeterSpacing&quot;:0};fontFamily=Comic Sans MS;" parent="1" vertex="1">
          <mxGeometry x="685" y="75" width="160" height="40" as="geometry" />
        </mxCell>
        <mxCell id="_G-EZJmPh7v3S1hzNm8B-22" value="" style="edgeStyle=entityRelationEdgeStyle;startArrow=none;endArrow=none;segment=10;curved=1;sourcePerimeterSpacing=0;targetPerimeterSpacing=0;rounded=0;fontFamily=Comic Sans MS;" parent="1" source="_G-EZJmPh7v3S1hzNm8B-8" target="_G-EZJmPh7v3S1hzNm8B-21" edge="1">
          <mxGeometry x="670" y="355" width="80" height="20" as="geometry" />
        </mxCell>
        <mxCell id="_G-EZJmPh7v3S1hzNm8B-23" value="Attribute2Font" style="whiteSpace=wrap;html=1;shape=partialRectangle;top=0;left=0;bottom=1;right=0;points=[[0,1],[1,1]];fillColor=none;align=center;verticalAlign=bottom;routingCenterY=0.5;snapToPoint=1;recursiveResize=0;autosize=1;treeFolding=1;treeMoving=1;newEdgeStyle={&quot;edgeStyle&quot;:&quot;entityRelationEdgeStyle&quot;,&quot;startArrow&quot;:&quot;none&quot;,&quot;endArrow&quot;:&quot;none&quot;,&quot;segment&quot;:10,&quot;curved&quot;:1,&quot;sourcePerimeterSpacing&quot;:0,&quot;targetPerimeterSpacing&quot;:0};fontFamily=Comic Sans MS;" parent="1" vertex="1">
          <mxGeometry x="890" y="65" width="130" height="30" as="geometry" />
        </mxCell>
        <mxCell id="_G-EZJmPh7v3S1hzNm8B-24" value="" style="edgeStyle=entityRelationEdgeStyle;startArrow=none;endArrow=none;segment=10;curved=1;sourcePerimeterSpacing=0;targetPerimeterSpacing=0;rounded=0;fontFamily=Comic Sans MS;" parent="1" source="_G-EZJmPh7v3S1hzNm8B-21" target="_G-EZJmPh7v3S1hzNm8B-23" edge="1">
          <mxGeometry x="870" y="290" width="80" height="20" as="geometry" />
        </mxCell>
        <mxCell id="_G-EZJmPh7v3S1hzNm8B-25" value="融合" style="whiteSpace=wrap;html=1;rounded=1;arcSize=50;align=center;verticalAlign=middle;strokeWidth=1;autosize=1;spacing=4;treeFolding=1;treeMoving=1;newEdgeStyle={&quot;edgeStyle&quot;:&quot;entityRelationEdgeStyle&quot;,&quot;startArrow&quot;:&quot;none&quot;,&quot;endArrow&quot;:&quot;none&quot;,&quot;segment&quot;:10,&quot;curved&quot;:1,&quot;sourcePerimeterSpacing&quot;:0,&quot;targetPerimeterSpacing&quot;:0};fillColor=#d5e8d4;strokeColor=#82b366;fontFamily=Comic Sans MS;" parent="1" vertex="1">
          <mxGeometry x="480" y="470" width="70" height="30" as="geometry" />
        </mxCell>
        <mxCell id="_G-EZJmPh7v3S1hzNm8B-26" value="" style="edgeStyle=entityRelationEdgeStyle;startArrow=none;endArrow=none;segment=10;curved=1;sourcePerimeterSpacing=0;targetPerimeterSpacing=0;rounded=0;fontFamily=Comic Sans MS;" parent="1" source="_G-EZJmPh7v3S1hzNm8B-4" target="_G-EZJmPh7v3S1hzNm8B-25" edge="1">
          <mxGeometry x="490" y="287" width="80" height="26" as="geometry" />
        </mxCell>
        <mxCell id="Lgd5MnXTCpF7ymXs19jn-25" style="edgeStyle=entityRelationEdgeStyle;rounded=0;orthogonalLoop=1;jettySize=auto;html=1;startArrow=none;endArrow=none;segment=10;curved=1;sourcePerimeterSpacing=0;targetPerimeterSpacing=0;fontFamily=Comic Sans MS;" parent="1" source="_G-EZJmPh7v3S1hzNm8B-27" target="_G-EZJmPh7v3S1hzNm8B-29" edge="1">
          <mxGeometry relative="1" as="geometry" />
        </mxCell>
        <mxCell id="_G-EZJmPh7v3S1hzNm8B-27" value="channel attn" style="whiteSpace=wrap;html=1;shape=partialRectangle;top=0;left=0;bottom=1;right=0;points=[[0,1],[1,1]];fillColor=none;align=center;verticalAlign=bottom;routingCenterY=0.5;snapToPoint=1;recursiveResize=0;autosize=1;treeFolding=1;treeMoving=1;newEdgeStyle={&quot;edgeStyle&quot;:&quot;entityRelationEdgeStyle&quot;,&quot;startArrow&quot;:&quot;none&quot;,&quot;endArrow&quot;:&quot;none&quot;,&quot;segment&quot;:10,&quot;curved&quot;:1,&quot;sourcePerimeterSpacing&quot;:0,&quot;targetPerimeterSpacing&quot;:0};fontFamily=Comic Sans MS;" parent="1" vertex="1">
          <mxGeometry x="590" y="404" width="110" height="30" as="geometry" />
        </mxCell>
        <mxCell id="_G-EZJmPh7v3S1hzNm8B-28" value="" style="edgeStyle=entityRelationEdgeStyle;startArrow=none;endArrow=none;segment=10;curved=1;sourcePerimeterSpacing=0;targetPerimeterSpacing=0;rounded=0;fontFamily=Comic Sans MS;" parent="1" source="_G-EZJmPh7v3S1hzNm8B-25" target="_G-EZJmPh7v3S1hzNm8B-27" edge="1">
          <mxGeometry x="625" y="473" width="80" height="20" as="geometry" />
        </mxCell>
        <mxCell id="_G-EZJmPh7v3S1hzNm8B-29" value="Attribute2Font" style="whiteSpace=wrap;html=1;shape=partialRectangle;top=0;left=0;bottom=1;right=0;points=[[0,1],[1,1]];fillColor=none;align=center;verticalAlign=bottom;routingCenterY=0.5;snapToPoint=1;recursiveResize=0;autosize=1;treeFolding=1;treeMoving=1;newEdgeStyle={&quot;edgeStyle&quot;:&quot;entityRelationEdgeStyle&quot;,&quot;startArrow&quot;:&quot;none&quot;,&quot;endArrow&quot;:&quot;none&quot;,&quot;segment&quot;:10,&quot;curved&quot;:1,&quot;sourcePerimeterSpacing&quot;:0,&quot;targetPerimeterSpacing&quot;:0};fontFamily=Comic Sans MS;" parent="1" vertex="1">
          <mxGeometry x="750" y="360" width="130" height="30" as="geometry" />
        </mxCell>
        <mxCell id="_G-EZJmPh7v3S1hzNm8B-31" value="pixel-level l2 loss" style="whiteSpace=wrap;html=1;shape=partialRectangle;top=0;left=0;bottom=1;right=0;points=[[0,1],[1,1]];fillColor=none;align=center;verticalAlign=bottom;routingCenterY=0.5;snapToPoint=1;recursiveResize=0;autosize=1;treeFolding=1;treeMoving=1;newEdgeStyle={&quot;edgeStyle&quot;:&quot;entityRelationEdgeStyle&quot;,&quot;startArrow&quot;:&quot;none&quot;,&quot;endArrow&quot;:&quot;none&quot;,&quot;segment&quot;:10,&quot;curved&quot;:1,&quot;sourcePerimeterSpacing&quot;:0,&quot;targetPerimeterSpacing&quot;:0};fontFamily=Comic Sans MS;" parent="1" vertex="1">
          <mxGeometry x="-220" y="280" width="140" height="30" as="geometry" />
        </mxCell>
        <mxCell id="_G-EZJmPh7v3S1hzNm8B-32" value="" style="edgeStyle=entityRelationEdgeStyle;startArrow=none;endArrow=none;segment=10;curved=1;sourcePerimeterSpacing=0;targetPerimeterSpacing=0;rounded=0;fontFamily=Comic Sans MS;" parent="1" source="_G-EZJmPh7v3S1hzNm8B-17" target="_G-EZJmPh7v3S1hzNm8B-31" edge="1">
          <mxGeometry x="-195" y="205" width="80" height="20" as="geometry" />
        </mxCell>
        <mxCell id="_G-EZJmPh7v3S1hzNm8B-33" value="ocr loss" style="whiteSpace=wrap;html=1;shape=partialRectangle;top=0;left=0;bottom=1;right=0;points=[[0,1],[1,1]];fillColor=none;align=center;verticalAlign=bottom;routingCenterY=0.5;snapToPoint=1;recursiveResize=0;autosize=1;treeFolding=1;treeMoving=1;newEdgeStyle={&quot;edgeStyle&quot;:&quot;entityRelationEdgeStyle&quot;,&quot;startArrow&quot;:&quot;none&quot;,&quot;endArrow&quot;:&quot;none&quot;,&quot;segment&quot;:10,&quot;curved&quot;:1,&quot;sourcePerimeterSpacing&quot;:0,&quot;targetPerimeterSpacing&quot;:0};fontFamily=Comic Sans MS;" parent="1" vertex="1">
          <mxGeometry x="-165" y="330" width="80" height="30" as="geometry" />
        </mxCell>
        <mxCell id="_G-EZJmPh7v3S1hzNm8B-34" value="" style="edgeStyle=entityRelationEdgeStyle;startArrow=none;endArrow=none;segment=10;curved=1;sourcePerimeterSpacing=0;targetPerimeterSpacing=0;rounded=0;fontFamily=Comic Sans MS;" parent="1" source="_G-EZJmPh7v3S1hzNm8B-17" target="_G-EZJmPh7v3S1hzNm8B-33" edge="1">
          <mxGeometry x="-195" y="205" width="80" height="20" as="geometry" />
        </mxCell>
        <mxCell id="_G-EZJmPh7v3S1hzNm8B-35" value="Attribute2Font" style="whiteSpace=wrap;html=1;shape=partialRectangle;top=0;left=0;bottom=1;right=0;points=[[0,1],[1,1]];fillColor=none;align=center;verticalAlign=bottom;routingCenterY=0.5;snapToPoint=1;recursiveResize=0;autosize=1;treeFolding=1;treeMoving=1;newEdgeStyle={&quot;edgeStyle&quot;:&quot;entityRelationEdgeStyle&quot;,&quot;startArrow&quot;:&quot;none&quot;,&quot;endArrow&quot;:&quot;none&quot;,&quot;segment&quot;:10,&quot;curved&quot;:1,&quot;sourcePerimeterSpacing&quot;:0,&quot;targetPerimeterSpacing&quot;:0};fontFamily=Comic Sans MS;" parent="1" vertex="1" collapsed="1">
          <mxGeometry x="-340" y="310" width="130" height="30" as="geometry" />
        </mxCell>
        <mxCell id="_G-EZJmPh7v3S1hzNm8B-36" value="" style="edgeStyle=entityRelationEdgeStyle;startArrow=none;endArrow=none;segment=10;curved=1;sourcePerimeterSpacing=0;targetPerimeterSpacing=0;rounded=0;fontFamily=Comic Sans MS;" parent="1" source="_G-EZJmPh7v3S1hzNm8B-33" target="_G-EZJmPh7v3S1hzNm8B-35" edge="1">
          <mxGeometry x="-315" y="200" width="80" height="20" as="geometry" />
        </mxCell>
        <mxCell id="_G-EZJmPh7v3S1hzNm8B-37" value="attr loss&lt;div&gt;专用于属性生成模型&lt;/div&gt;" style="whiteSpace=wrap;html=1;shape=partialRectangle;top=0;left=0;bottom=1;right=0;points=[[0,1],[1,1]];fillColor=none;align=center;verticalAlign=bottom;routingCenterY=0.5;snapToPoint=1;recursiveResize=0;autosize=1;treeFolding=1;treeMoving=1;newEdgeStyle={&quot;edgeStyle&quot;:&quot;entityRelationEdgeStyle&quot;,&quot;startArrow&quot;:&quot;none&quot;,&quot;endArrow&quot;:&quot;none&quot;,&quot;segment&quot;:10,&quot;curved&quot;:1,&quot;sourcePerimeterSpacing&quot;:0,&quot;targetPerimeterSpacing&quot;:0};fontFamily=Comic Sans MS;" parent="1" vertex="1" collapsed="1">
          <mxGeometry x="-250" y="220" width="150" height="40" as="geometry" />
        </mxCell>
        <mxCell id="_G-EZJmPh7v3S1hzNm8B-38" value="" style="edgeStyle=entityRelationEdgeStyle;startArrow=none;endArrow=none;segment=10;curved=1;sourcePerimeterSpacing=0;targetPerimeterSpacing=0;rounded=0;fontFamily=Comic Sans MS;" parent="1" source="_G-EZJmPh7v3S1hzNm8B-17" target="_G-EZJmPh7v3S1hzNm8B-37" edge="1">
          <mxGeometry x="-195" y="205" width="80" height="20" as="geometry" />
        </mxCell>
        <mxCell id="_G-EZJmPh7v3S1hzNm8B-39" value="Attribute2Font" style="whiteSpace=wrap;html=1;shape=partialRectangle;top=0;left=0;bottom=1;right=0;points=[[0,1],[1,1]];fillColor=none;align=center;verticalAlign=bottom;routingCenterY=0.5;snapToPoint=1;recursiveResize=0;autosize=1;treeFolding=1;treeMoving=1;newEdgeStyle={&quot;edgeStyle&quot;:&quot;entityRelationEdgeStyle&quot;,&quot;startArrow&quot;:&quot;none&quot;,&quot;endArrow&quot;:&quot;none&quot;,&quot;segment&quot;:10,&quot;curved&quot;:1,&quot;sourcePerimeterSpacing&quot;:0,&quot;targetPerimeterSpacing&quot;:0};" parent="1" vertex="1" visible="0">
          <mxGeometry x="-410" y="210" width="120" height="30" as="geometry" />
        </mxCell>
        <mxCell id="_G-EZJmPh7v3S1hzNm8B-40" value="" style="edgeStyle=entityRelationEdgeStyle;startArrow=none;endArrow=none;segment=10;curved=1;sourcePerimeterSpacing=0;targetPerimeterSpacing=0;rounded=0;" parent="1" source="_G-EZJmPh7v3S1hzNm8B-37" target="_G-EZJmPh7v3S1hzNm8B-39" edge="1" visible="0">
          <mxGeometry x="-390" y="140" width="80" height="20" as="geometry" />
        </mxCell>
        <mxCell id="_G-EZJmPh7v3S1hzNm8B-41" value="AttrFont-ENG&lt;div&gt;带有属性的数据&lt;/div&gt;" style="whiteSpace=wrap;html=1;shape=partialRectangle;top=0;left=0;bottom=1;right=0;points=[[0,1],[1,1]];fillColor=none;align=center;verticalAlign=bottom;routingCenterY=0.5;snapToPoint=1;recursiveResize=0;autosize=1;treeFolding=1;treeMoving=1;newEdgeStyle={&quot;edgeStyle&quot;:&quot;entityRelationEdgeStyle&quot;,&quot;startArrow&quot;:&quot;none&quot;,&quot;endArrow&quot;:&quot;none&quot;,&quot;segment&quot;:10,&quot;curved&quot;:1,&quot;sourcePerimeterSpacing&quot;:0,&quot;targetPerimeterSpacing&quot;:0};fontSize=12;fontFamily=Comic Sans MS;" parent="1" vertex="1">
          <mxGeometry x="-185" y="650" width="120" height="40" as="geometry" />
        </mxCell>
        <mxCell id="_G-EZJmPh7v3S1hzNm8B-42" value="" style="edgeStyle=entityRelationEdgeStyle;startArrow=none;endArrow=none;segment=10;curved=1;sourcePerimeterSpacing=0;targetPerimeterSpacing=0;rounded=0;fontFamily=Comic Sans MS;" parent="1" source="_G-EZJmPh7v3S1hzNm8B-19" target="_G-EZJmPh7v3S1hzNm8B-41" edge="1">
          <mxGeometry x="-165" y="373" width="80" height="20" as="geometry" />
        </mxCell>
        <mxCell id="_G-EZJmPh7v3S1hzNm8B-43" value="Attribute2Font 提出" style="whiteSpace=wrap;html=1;shape=partialRectangle;top=0;left=0;bottom=1;right=0;points=[[0,1],[1,1]];fillColor=none;align=center;verticalAlign=bottom;routingCenterY=0.5;snapToPoint=1;recursiveResize=0;autosize=1;treeFolding=1;treeMoving=1;newEdgeStyle={&quot;edgeStyle&quot;:&quot;entityRelationEdgeStyle&quot;,&quot;startArrow&quot;:&quot;none&quot;,&quot;endArrow&quot;:&quot;none&quot;,&quot;segment&quot;:10,&quot;curved&quot;:1,&quot;sourcePerimeterSpacing&quot;:0,&quot;targetPerimeterSpacing&quot;:0};fontFamily=Comic Sans MS;" parent="1" vertex="1">
          <mxGeometry x="-385" y="642" width="160" height="30" as="geometry" />
        </mxCell>
        <mxCell id="_G-EZJmPh7v3S1hzNm8B-44" value="" style="edgeStyle=entityRelationEdgeStyle;startArrow=none;endArrow=none;segment=10;curved=1;sourcePerimeterSpacing=0;targetPerimeterSpacing=0;rounded=0;fontFamily=Comic Sans MS;" parent="1" source="_G-EZJmPh7v3S1hzNm8B-41" target="_G-EZJmPh7v3S1hzNm8B-43" edge="1">
          <mxGeometry x="-330" y="338" width="80" height="20" as="geometry" />
        </mxCell>
        <mxCell id="_G-EZJmPh7v3S1hzNm8B-45" value="Domain Knowledge" style="whiteSpace=wrap;html=1;shape=partialRectangle;top=0;left=0;bottom=1;right=0;points=[[0,1],[1,1]];fillColor=none;align=center;verticalAlign=bottom;routingCenterY=0.5;snapToPoint=1;recursiveResize=0;autosize=1;treeFolding=1;treeMoving=1;newEdgeStyle={&quot;edgeStyle&quot;:&quot;entityRelationEdgeStyle&quot;,&quot;startArrow&quot;:&quot;none&quot;,&quot;endArrow&quot;:&quot;none&quot;,&quot;segment&quot;:10,&quot;curved&quot;:1,&quot;sourcePerimeterSpacing&quot;:0,&quot;targetPerimeterSpacing&quot;:0};fontFamily=Comic Sans MS;" parent="1" vertex="1">
          <mxGeometry x="697" y="-200" width="140" height="30" as="geometry" />
        </mxCell>
        <mxCell id="_G-EZJmPh7v3S1hzNm8B-46" value="" style="edgeStyle=entityRelationEdgeStyle;startArrow=none;endArrow=none;segment=10;curved=1;sourcePerimeterSpacing=0;targetPerimeterSpacing=0;rounded=0;fontFamily=Comic Sans MS;" parent="1" source="_G-EZJmPh7v3S1hzNm8B-11" target="_G-EZJmPh7v3S1hzNm8B-45" edge="1">
          <mxGeometry x="720" y="125" width="80" height="20" as="geometry" />
        </mxCell>
        <mxCell id="_G-EZJmPh7v3S1hzNm8B-47" value="&lt;div&gt;CalliGAN&lt;/div&gt;一种比部首更高级的部件；517 个" style="whiteSpace=wrap;html=1;shape=partialRectangle;top=0;left=0;bottom=1;right=0;points=[[0,1],[1,1]];fillColor=none;align=center;verticalAlign=bottom;routingCenterY=0.5;snapToPoint=1;recursiveResize=0;autosize=1;treeFolding=1;treeMoving=1;newEdgeStyle={&quot;edgeStyle&quot;:&quot;entityRelationEdgeStyle&quot;,&quot;startArrow&quot;:&quot;none&quot;,&quot;endArrow&quot;:&quot;none&quot;,&quot;segment&quot;:10,&quot;curved&quot;:1,&quot;sourcePerimeterSpacing&quot;:0,&quot;targetPerimeterSpacing&quot;:0};fontFamily=Comic Sans MS;" parent="1" vertex="1">
          <mxGeometry x="890" y="-240" width="220" height="40" as="geometry" />
        </mxCell>
        <mxCell id="_G-EZJmPh7v3S1hzNm8B-48" value="" style="edgeStyle=entityRelationEdgeStyle;startArrow=none;endArrow=none;segment=10;curved=1;sourcePerimeterSpacing=0;targetPerimeterSpacing=0;rounded=0;fontFamily=Comic Sans MS;" parent="1" source="_G-EZJmPh7v3S1hzNm8B-45" target="_G-EZJmPh7v3S1hzNm8B-47" edge="1">
          <mxGeometry x="907" y="85" width="80" height="20" as="geometry" />
        </mxCell>
        <mxCell id="_G-EZJmPh7v3S1hzNm8B-51" value="生成图像通过 style classifier&lt;div&gt;或冲重新提取出 style embedding&lt;/div&gt;" style="whiteSpace=wrap;html=1;shape=partialRectangle;top=0;left=0;bottom=1;right=0;points=[[0,1],[1,1]];fillColor=none;align=center;verticalAlign=bottom;routingCenterY=0.5;snapToPoint=1;recursiveResize=0;autosize=1;treeFolding=1;treeMoving=1;newEdgeStyle={&quot;edgeStyle&quot;:&quot;entityRelationEdgeStyle&quot;,&quot;startArrow&quot;:&quot;none&quot;,&quot;endArrow&quot;:&quot;none&quot;,&quot;segment&quot;:10,&quot;curved&quot;:1,&quot;sourcePerimeterSpacing&quot;:0,&quot;targetPerimeterSpacing&quot;:0};fontFamily=Comic Sans MS;" parent="1" vertex="1">
          <mxGeometry x="-310" y="370" width="220" height="40" as="geometry" />
        </mxCell>
        <mxCell id="_G-EZJmPh7v3S1hzNm8B-52" value="" style="edgeStyle=entityRelationEdgeStyle;startArrow=none;endArrow=none;segment=10;curved=1;sourcePerimeterSpacing=0;targetPerimeterSpacing=0;rounded=0;fontFamily=Comic Sans MS;" parent="1" source="_G-EZJmPh7v3S1hzNm8B-17" target="_G-EZJmPh7v3S1hzNm8B-51" edge="1">
          <mxGeometry x="-195" y="205" width="80" height="20" as="geometry" />
        </mxCell>
        <mxCell id="_G-EZJmPh7v3S1hzNm8B-55" value="生成图像通过 content classifier&lt;div&gt;或重新提取出 content embedding&lt;/div&gt;" style="whiteSpace=wrap;html=1;shape=partialRectangle;top=0;left=0;bottom=1;right=0;points=[[0,1],[1,1]];fillColor=none;align=center;verticalAlign=bottom;routingCenterY=0.5;snapToPoint=1;recursiveResize=0;autosize=1;treeFolding=1;treeMoving=1;newEdgeStyle={&quot;edgeStyle&quot;:&quot;entityRelationEdgeStyle&quot;,&quot;startArrow&quot;:&quot;none&quot;,&quot;endArrow&quot;:&quot;none&quot;,&quot;segment&quot;:10,&quot;curved&quot;:1,&quot;sourcePerimeterSpacing&quot;:0,&quot;targetPerimeterSpacing&quot;:0};fontFamily=Comic Sans MS;" parent="1" vertex="1">
          <mxGeometry x="-305" y="180" width="220" height="40" as="geometry" />
        </mxCell>
        <mxCell id="_G-EZJmPh7v3S1hzNm8B-56" value="" style="edgeStyle=entityRelationEdgeStyle;startArrow=none;endArrow=none;segment=10;curved=1;sourcePerimeterSpacing=0;targetPerimeterSpacing=0;rounded=0;fontFamily=Comic Sans MS;" parent="1" source="_G-EZJmPh7v3S1hzNm8B-17" target="_G-EZJmPh7v3S1hzNm8B-55" edge="1">
          <mxGeometry x="-195" y="205" width="80" height="20" as="geometry" />
        </mxCell>
        <mxCell id="_G-EZJmPh7v3S1hzNm8B-57" value="矩阵分解" style="whiteSpace=wrap;html=1;shape=partialRectangle;top=0;left=0;bottom=1;right=0;points=[[0,1],[1,1]];fillColor=none;align=center;verticalAlign=bottom;routingCenterY=0.5;snapToPoint=1;recursiveResize=0;autosize=1;treeFolding=1;treeMoving=1;newEdgeStyle={&quot;edgeStyle&quot;:&quot;entityRelationEdgeStyle&quot;,&quot;startArrow&quot;:&quot;none&quot;,&quot;endArrow&quot;:&quot;none&quot;,&quot;segment&quot;:10,&quot;curved&quot;:1,&quot;sourcePerimeterSpacing&quot;:0,&quot;targetPerimeterSpacing&quot;:0};fontFamily=Comic Sans MS;" parent="1" vertex="1">
          <mxGeometry x="697" y="-115" width="90" height="30" as="geometry" />
        </mxCell>
        <mxCell id="_G-EZJmPh7v3S1hzNm8B-58" value="" style="edgeStyle=entityRelationEdgeStyle;startArrow=none;endArrow=none;segment=10;curved=1;sourcePerimeterSpacing=0;targetPerimeterSpacing=0;rounded=0;fontFamily=Comic Sans MS;" parent="1" source="_G-EZJmPh7v3S1hzNm8B-11" target="_G-EZJmPh7v3S1hzNm8B-57" edge="1">
          <mxGeometry x="720" y="125" width="80" height="20" as="geometry" />
        </mxCell>
        <mxCell id="_G-EZJmPh7v3S1hzNm8B-59" value="LF-Font" style="whiteSpace=wrap;html=1;shape=partialRectangle;top=0;left=0;bottom=1;right=0;points=[[0,1],[1,1]];fillColor=none;align=center;verticalAlign=bottom;routingCenterY=0.5;snapToPoint=1;recursiveResize=0;autosize=1;treeFolding=1;treeMoving=1;newEdgeStyle={&quot;edgeStyle&quot;:&quot;entityRelationEdgeStyle&quot;,&quot;startArrow&quot;:&quot;none&quot;,&quot;endArrow&quot;:&quot;none&quot;,&quot;segment&quot;:10,&quot;curved&quot;:1,&quot;sourcePerimeterSpacing&quot;:0,&quot;targetPerimeterSpacing&quot;:0};fontFamily=Comic Sans MS;" parent="1" vertex="1">
          <mxGeometry x="840" y="-95" width="80" height="30" as="geometry" />
        </mxCell>
        <mxCell id="_G-EZJmPh7v3S1hzNm8B-60" value="" style="edgeStyle=entityRelationEdgeStyle;startArrow=none;endArrow=none;segment=10;curved=1;sourcePerimeterSpacing=0;targetPerimeterSpacing=0;rounded=0;fontFamily=Comic Sans MS;" parent="1" source="_G-EZJmPh7v3S1hzNm8B-57" target="_G-EZJmPh7v3S1hzNm8B-59" edge="1">
          <mxGeometry x="877" y="125" width="80" height="20" as="geometry" />
        </mxCell>
        <mxCell id="_G-EZJmPh7v3S1hzNm8B-61" value="矩阵分解" style="whiteSpace=wrap;html=1;shape=partialRectangle;top=0;left=0;bottom=1;right=0;points=[[0,1],[1,1]];fillColor=none;align=center;verticalAlign=bottom;routingCenterY=0.5;snapToPoint=1;recursiveResize=0;autosize=1;treeFolding=1;treeMoving=1;newEdgeStyle={&quot;edgeStyle&quot;:&quot;entityRelationEdgeStyle&quot;,&quot;startArrow&quot;:&quot;none&quot;,&quot;endArrow&quot;:&quot;none&quot;,&quot;segment&quot;:10,&quot;curved&quot;:1,&quot;sourcePerimeterSpacing&quot;:0,&quot;targetPerimeterSpacing&quot;:0};fontFamily=Comic Sans MS;" parent="1" vertex="1">
          <mxGeometry x="690" y="155" width="90" height="30" as="geometry" />
        </mxCell>
        <mxCell id="_G-EZJmPh7v3S1hzNm8B-62" value="" style="edgeStyle=entityRelationEdgeStyle;startArrow=none;endArrow=none;segment=10;curved=1;sourcePerimeterSpacing=0;targetPerimeterSpacing=0;rounded=0;fontFamily=Comic Sans MS;" parent="1" source="_G-EZJmPh7v3S1hzNm8B-8" target="_G-EZJmPh7v3S1hzNm8B-61" edge="1">
          <mxGeometry x="710" y="290" width="80" height="20" as="geometry" />
        </mxCell>
        <mxCell id="_G-EZJmPh7v3S1hzNm8B-63" value="LF-Font" style="whiteSpace=wrap;html=1;shape=partialRectangle;top=0;left=0;bottom=1;right=0;points=[[0,1],[1,1]];fillColor=none;align=center;verticalAlign=bottom;routingCenterY=0.5;snapToPoint=1;recursiveResize=0;autosize=1;treeFolding=1;treeMoving=1;newEdgeStyle={&quot;edgeStyle&quot;:&quot;entityRelationEdgeStyle&quot;,&quot;startArrow&quot;:&quot;none&quot;,&quot;endArrow&quot;:&quot;none&quot;,&quot;segment&quot;:10,&quot;curved&quot;:1,&quot;sourcePerimeterSpacing&quot;:0,&quot;targetPerimeterSpacing&quot;:0};fontFamily=Comic Sans MS;" parent="1" vertex="1">
          <mxGeometry x="840" y="125" width="80" height="30" as="geometry" />
        </mxCell>
        <mxCell id="_G-EZJmPh7v3S1hzNm8B-64" value="" style="edgeStyle=entityRelationEdgeStyle;startArrow=none;endArrow=none;segment=10;curved=1;sourcePerimeterSpacing=0;targetPerimeterSpacing=0;rounded=0;fontFamily=Comic Sans MS;" parent="1" source="_G-EZJmPh7v3S1hzNm8B-61" target="_G-EZJmPh7v3S1hzNm8B-63" edge="1">
          <mxGeometry x="860" y="290" width="80" height="20" as="geometry" />
        </mxCell>
        <mxCell id="_G-EZJmPh7v3S1hzNm8B-65" value="LF-Font&lt;div&gt;提供了很多字符的部件分解表&lt;/div&gt;" style="whiteSpace=wrap;html=1;shape=partialRectangle;top=0;left=0;bottom=1;right=0;points=[[0,1],[1,1]];fillColor=none;align=center;verticalAlign=bottom;routingCenterY=0.5;snapToPoint=1;recursiveResize=0;autosize=1;treeFolding=1;treeMoving=1;newEdgeStyle={&quot;edgeStyle&quot;:&quot;entityRelationEdgeStyle&quot;,&quot;startArrow&quot;:&quot;none&quot;,&quot;endArrow&quot;:&quot;none&quot;,&quot;segment&quot;:10,&quot;curved&quot;:1,&quot;sourcePerimeterSpacing&quot;:0,&quot;targetPerimeterSpacing&quot;:0};fontFamily=Comic Sans MS;" parent="1" vertex="1">
          <mxGeometry x="890" y="-190" width="200" height="40" as="geometry" />
        </mxCell>
        <mxCell id="_G-EZJmPh7v3S1hzNm8B-66" value="" style="edgeStyle=entityRelationEdgeStyle;startArrow=none;endArrow=none;segment=10;curved=1;sourcePerimeterSpacing=0;targetPerimeterSpacing=0;rounded=0;fontFamily=Comic Sans MS;" parent="1" source="_G-EZJmPh7v3S1hzNm8B-45" target="_G-EZJmPh7v3S1hzNm8B-65" edge="1">
          <mxGeometry x="907" y="85" width="80" height="20" as="geometry" />
        </mxCell>
        <mxCell id="_G-EZJmPh7v3S1hzNm8B-67" value="从开源字体库中生成数据" style="whiteSpace=wrap;html=1;shape=partialRectangle;top=0;left=0;bottom=1;right=0;points=[[0,1],[1,1]];fillColor=none;align=center;verticalAlign=bottom;routingCenterY=0.5;snapToPoint=1;recursiveResize=0;autosize=1;treeFolding=1;treeMoving=1;newEdgeStyle={&quot;edgeStyle&quot;:&quot;entityRelationEdgeStyle&quot;,&quot;startArrow&quot;:&quot;none&quot;,&quot;endArrow&quot;:&quot;none&quot;,&quot;segment&quot;:10,&quot;curved&quot;:1,&quot;sourcePerimeterSpacing&quot;:0,&quot;targetPerimeterSpacing&quot;:0};fontFamily=Comic Sans MS;" parent="1" vertex="1">
          <mxGeometry x="-235" y="692" width="170" height="30" as="geometry" />
        </mxCell>
        <mxCell id="_G-EZJmPh7v3S1hzNm8B-68" value="" style="edgeStyle=entityRelationEdgeStyle;startArrow=none;endArrow=none;segment=10;curved=1;sourcePerimeterSpacing=0;targetPerimeterSpacing=0;rounded=0;fontFamily=Comic Sans MS;" parent="1" source="_G-EZJmPh7v3S1hzNm8B-19" target="_G-EZJmPh7v3S1hzNm8B-67" edge="1">
          <mxGeometry x="-165" y="373" width="80" height="20" as="geometry" />
        </mxCell>
        <mxCell id="_G-EZJmPh7v3S1hzNm8B-69" value="StokeGAN，StrokeGAN+，Diff-Font&lt;div&gt;stroke-level 部件分解；提供了分解表&lt;/div&gt;" style="whiteSpace=wrap;html=1;shape=partialRectangle;top=0;left=0;bottom=1;right=0;points=[[0,1],[1,1]];fillColor=none;align=center;verticalAlign=bottom;routingCenterY=0.5;snapToPoint=1;recursiveResize=0;autosize=1;treeFolding=1;treeMoving=1;newEdgeStyle={&quot;edgeStyle&quot;:&quot;entityRelationEdgeStyle&quot;,&quot;startArrow&quot;:&quot;none&quot;,&quot;endArrow&quot;:&quot;none&quot;,&quot;segment&quot;:10,&quot;curved&quot;:1,&quot;sourcePerimeterSpacing&quot;:0,&quot;targetPerimeterSpacing&quot;:0};fontFamily=Comic Sans MS;" parent="1" vertex="1">
          <mxGeometry x="885" y="-280" width="250" height="40" as="geometry" />
        </mxCell>
        <mxCell id="_G-EZJmPh7v3S1hzNm8B-70" value="" style="edgeStyle=entityRelationEdgeStyle;startArrow=none;endArrow=none;segment=10;curved=1;sourcePerimeterSpacing=0;targetPerimeterSpacing=0;rounded=0;fontFamily=Comic Sans MS;" parent="1" source="_G-EZJmPh7v3S1hzNm8B-45" target="_G-EZJmPh7v3S1hzNm8B-69" edge="1">
          <mxGeometry x="907" y="85" width="80" height="20" as="geometry" />
        </mxCell>
        <mxCell id="_G-EZJmPh7v3S1hzNm8B-71" value="IS" style="whiteSpace=wrap;html=1;shape=partialRectangle;top=0;left=0;bottom=1;right=0;points=[[0,1],[1,1]];fillColor=none;align=center;verticalAlign=bottom;routingCenterY=0.5;snapToPoint=1;recursiveResize=0;autosize=1;treeFolding=1;treeMoving=1;newEdgeStyle={&quot;edgeStyle&quot;:&quot;entityRelationEdgeStyle&quot;,&quot;startArrow&quot;:&quot;none&quot;,&quot;endArrow&quot;:&quot;none&quot;,&quot;segment&quot;:10,&quot;curved&quot;:1,&quot;sourcePerimeterSpacing&quot;:0,&quot;targetPerimeterSpacing&quot;:0};fontFamily=Comic Sans MS;" parent="1" vertex="1">
          <mxGeometry x="-170" y="880" width="60" height="30" as="geometry" />
        </mxCell>
        <mxCell id="_G-EZJmPh7v3S1hzNm8B-72" value="" style="edgeStyle=entityRelationEdgeStyle;startArrow=none;endArrow=none;segment=10;curved=1;sourcePerimeterSpacing=0;targetPerimeterSpacing=0;rounded=0;fontFamily=Comic Sans MS;" parent="1" source="_G-EZJmPh7v3S1hzNm8B-15" target="_G-EZJmPh7v3S1hzNm8B-71" edge="1">
          <mxGeometry x="-215" y="560" width="80" height="20" as="geometry" />
        </mxCell>
        <mxCell id="_G-EZJmPh7v3S1hzNm8B-73" value="FID" style="whiteSpace=wrap;html=1;shape=partialRectangle;top=0;left=0;bottom=1;right=0;points=[[0,1],[1,1]];fillColor=none;align=center;verticalAlign=bottom;routingCenterY=0.5;snapToPoint=1;recursiveResize=0;autosize=1;treeFolding=1;treeMoving=1;newEdgeStyle={&quot;edgeStyle&quot;:&quot;entityRelationEdgeStyle&quot;,&quot;startArrow&quot;:&quot;none&quot;,&quot;endArrow&quot;:&quot;none&quot;,&quot;segment&quot;:10,&quot;curved&quot;:1,&quot;sourcePerimeterSpacing&quot;:0,&quot;targetPerimeterSpacing&quot;:0};fontFamily=Comic Sans MS;" parent="1" vertex="1">
          <mxGeometry x="-175" y="910" width="60" height="30" as="geometry" />
        </mxCell>
        <mxCell id="_G-EZJmPh7v3S1hzNm8B-74" value="" style="edgeStyle=entityRelationEdgeStyle;startArrow=none;endArrow=none;segment=10;curved=1;sourcePerimeterSpacing=0;targetPerimeterSpacing=0;rounded=0;fontFamily=Comic Sans MS;" parent="1" source="_G-EZJmPh7v3S1hzNm8B-15" target="_G-EZJmPh7v3S1hzNm8B-73" edge="1">
          <mxGeometry x="-215" y="560" width="80" height="20" as="geometry" />
        </mxCell>
        <mxCell id="_G-EZJmPh7v3S1hzNm8B-75" value="SSIM" style="whiteSpace=wrap;html=1;shape=partialRectangle;top=0;left=0;bottom=1;right=0;points=[[0,1],[1,1]];fillColor=none;align=center;verticalAlign=bottom;routingCenterY=0.5;snapToPoint=1;recursiveResize=0;autosize=1;treeFolding=1;treeMoving=1;newEdgeStyle={&quot;edgeStyle&quot;:&quot;entityRelationEdgeStyle&quot;,&quot;startArrow&quot;:&quot;none&quot;,&quot;endArrow&quot;:&quot;none&quot;,&quot;segment&quot;:10,&quot;curved&quot;:1,&quot;sourcePerimeterSpacing&quot;:0,&quot;targetPerimeterSpacing&quot;:0};fontFamily=Comic Sans MS;" parent="1" vertex="1">
          <mxGeometry x="-190" y="850" width="70" height="30" as="geometry" />
        </mxCell>
        <mxCell id="_G-EZJmPh7v3S1hzNm8B-76" value="" style="edgeStyle=entityRelationEdgeStyle;startArrow=none;endArrow=none;segment=10;curved=1;sourcePerimeterSpacing=0;targetPerimeterSpacing=0;rounded=0;fontFamily=Comic Sans MS;" parent="1" source="_G-EZJmPh7v3S1hzNm8B-15" target="_G-EZJmPh7v3S1hzNm8B-75" edge="1">
          <mxGeometry x="-215" y="560" width="80" height="20" as="geometry" />
        </mxCell>
        <mxCell id="_G-EZJmPh7v3S1hzNm8B-77" value="LPIPS" style="whiteSpace=wrap;html=1;shape=partialRectangle;top=0;left=0;bottom=1;right=0;points=[[0,1],[1,1]];fillColor=none;align=center;verticalAlign=bottom;routingCenterY=0.5;snapToPoint=1;recursiveResize=0;autosize=1;treeFolding=1;treeMoving=1;newEdgeStyle={&quot;edgeStyle&quot;:&quot;entityRelationEdgeStyle&quot;,&quot;startArrow&quot;:&quot;none&quot;,&quot;endArrow&quot;:&quot;none&quot;,&quot;segment&quot;:10,&quot;curved&quot;:1,&quot;sourcePerimeterSpacing&quot;:0,&quot;targetPerimeterSpacing&quot;:0};fontFamily=Comic Sans MS;" parent="1" vertex="1">
          <mxGeometry x="-185" y="940" width="70" height="30" as="geometry" />
        </mxCell>
        <mxCell id="_G-EZJmPh7v3S1hzNm8B-78" value="" style="edgeStyle=entityRelationEdgeStyle;startArrow=none;endArrow=none;segment=10;curved=1;sourcePerimeterSpacing=0;targetPerimeterSpacing=0;rounded=0;fontFamily=Comic Sans MS;" parent="1" source="_G-EZJmPh7v3S1hzNm8B-15" target="_G-EZJmPh7v3S1hzNm8B-77" edge="1">
          <mxGeometry x="-215" y="560" width="80" height="20" as="geometry" />
        </mxCell>
        <mxCell id="_G-EZJmPh7v3S1hzNm8B-79" value="pixel-level acc" style="whiteSpace=wrap;html=1;shape=partialRectangle;top=0;left=0;bottom=1;right=0;points=[[0,1],[1,1]];fillColor=none;align=center;verticalAlign=bottom;routingCenterY=0.5;snapToPoint=1;recursiveResize=0;autosize=1;treeFolding=1;treeMoving=1;newEdgeStyle={&quot;edgeStyle&quot;:&quot;entityRelationEdgeStyle&quot;,&quot;startArrow&quot;:&quot;none&quot;,&quot;endArrow&quot;:&quot;none&quot;,&quot;segment&quot;:10,&quot;curved&quot;:1,&quot;sourcePerimeterSpacing&quot;:0,&quot;targetPerimeterSpacing&quot;:0};fontFamily=Comic Sans MS;" parent="1" vertex="1">
          <mxGeometry x="-235" y="820" width="120" height="30" as="geometry" />
        </mxCell>
        <mxCell id="_G-EZJmPh7v3S1hzNm8B-80" value="" style="edgeStyle=entityRelationEdgeStyle;startArrow=none;endArrow=none;segment=10;curved=1;sourcePerimeterSpacing=0;targetPerimeterSpacing=0;rounded=0;fontFamily=Comic Sans MS;" parent="1" source="_G-EZJmPh7v3S1hzNm8B-15" target="_G-EZJmPh7v3S1hzNm8B-79" edge="1">
          <mxGeometry x="-215" y="560" width="80" height="20" as="geometry" />
        </mxCell>
        <mxCell id="_G-EZJmPh7v3S1hzNm8B-81" value="Font Acc" style="whiteSpace=wrap;html=1;shape=partialRectangle;top=0;left=0;bottom=1;right=0;points=[[0,1],[1,1]];fillColor=none;align=center;verticalAlign=bottom;routingCenterY=0.5;snapToPoint=1;recursiveResize=0;autosize=1;treeFolding=1;treeMoving=1;newEdgeStyle={&quot;edgeStyle&quot;:&quot;entityRelationEdgeStyle&quot;,&quot;startArrow&quot;:&quot;none&quot;,&quot;endArrow&quot;:&quot;none&quot;,&quot;segment&quot;:10,&quot;curved&quot;:1,&quot;sourcePerimeterSpacing&quot;:0,&quot;targetPerimeterSpacing&quot;:0};fontFamily=Comic Sans MS;" parent="1" vertex="1">
          <mxGeometry x="-205" y="970" width="90" height="30" as="geometry" />
        </mxCell>
        <mxCell id="_G-EZJmPh7v3S1hzNm8B-82" value="" style="edgeStyle=entityRelationEdgeStyle;startArrow=none;endArrow=none;segment=10;curved=1;sourcePerimeterSpacing=0;targetPerimeterSpacing=0;rounded=0;fontFamily=Comic Sans MS;" parent="1" source="_G-EZJmPh7v3S1hzNm8B-15" target="_G-EZJmPh7v3S1hzNm8B-81" edge="1">
          <mxGeometry x="-215" y="560" width="80" height="20" as="geometry" />
        </mxCell>
        <mxCell id="_G-EZJmPh7v3S1hzNm8B-83" value="Content Acc" style="whiteSpace=wrap;html=1;shape=partialRectangle;top=0;left=0;bottom=1;right=0;points=[[0,1],[1,1]];fillColor=none;align=center;verticalAlign=bottom;routingCenterY=0.5;snapToPoint=1;recursiveResize=0;autosize=1;treeFolding=1;treeMoving=1;newEdgeStyle={&quot;edgeStyle&quot;:&quot;entityRelationEdgeStyle&quot;,&quot;startArrow&quot;:&quot;none&quot;,&quot;endArrow&quot;:&quot;none&quot;,&quot;segment&quot;:10,&quot;curved&quot;:1,&quot;sourcePerimeterSpacing&quot;:0,&quot;targetPerimeterSpacing&quot;:0};fontFamily=Comic Sans MS;" parent="1" vertex="1">
          <mxGeometry x="-225" y="783" width="110" height="30" as="geometry" />
        </mxCell>
        <mxCell id="_G-EZJmPh7v3S1hzNm8B-84" value="" style="edgeStyle=entityRelationEdgeStyle;startArrow=none;endArrow=none;segment=10;curved=1;sourcePerimeterSpacing=0;targetPerimeterSpacing=0;rounded=0;fontFamily=Comic Sans MS;" parent="1" source="_G-EZJmPh7v3S1hzNm8B-15" target="_G-EZJmPh7v3S1hzNm8B-83" edge="1">
          <mxGeometry x="-215" y="560" width="80" height="20" as="geometry" />
        </mxCell>
        <mxCell id="_G-EZJmPh7v3S1hzNm8B-85" value="更多字符相关的 Domain Knowledge" style="whiteSpace=wrap;html=1;shape=partialRectangle;top=0;left=0;bottom=1;right=0;points=[[0,1],[1,1]];fillColor=none;align=center;verticalAlign=bottom;routingCenterY=0.5;snapToPoint=1;recursiveResize=0;autosize=1;treeFolding=1;treeMoving=1;newEdgeStyle={&quot;edgeStyle&quot;:&quot;entityRelationEdgeStyle&quot;,&quot;startArrow&quot;:&quot;none&quot;,&quot;endArrow&quot;:&quot;none&quot;,&quot;segment&quot;:10,&quot;curved&quot;:1,&quot;sourcePerimeterSpacing&quot;:0,&quot;targetPerimeterSpacing&quot;:0};fontFamily=Comic Sans MS;" parent="1" vertex="1">
          <mxGeometry x="-265" y="-100" width="230" height="30" as="geometry" />
        </mxCell>
        <mxCell id="_G-EZJmPh7v3S1hzNm8B-86" value="" style="edgeStyle=entityRelationEdgeStyle;startArrow=none;endArrow=none;segment=10;curved=1;sourcePerimeterSpacing=0;targetPerimeterSpacing=0;rounded=0;fontFamily=Comic Sans MS;" parent="1" source="_G-EZJmPh7v3S1hzNm8B-13" target="_G-EZJmPh7v3S1hzNm8B-85" edge="1">
          <mxGeometry x="-145" y="45" width="80" height="20" as="geometry" />
        </mxCell>
        <mxCell id="_G-EZJmPh7v3S1hzNm8B-89" value="DCN&lt;div&gt;一般是 skip connection 中&lt;/div&gt;" style="whiteSpace=wrap;html=1;shape=partialRectangle;top=0;left=0;bottom=1;right=0;points=[[0,1],[1,1]];fillColor=none;align=center;verticalAlign=bottom;routingCenterY=0.5;snapToPoint=1;recursiveResize=0;autosize=1;treeFolding=1;treeMoving=1;newEdgeStyle={&quot;edgeStyle&quot;:&quot;entityRelationEdgeStyle&quot;,&quot;startArrow&quot;:&quot;none&quot;,&quot;endArrow&quot;:&quot;none&quot;,&quot;segment&quot;:10,&quot;curved&quot;:1,&quot;sourcePerimeterSpacing&quot;:0,&quot;targetPerimeterSpacing&quot;:0};fontFamily=Comic Sans MS;" parent="1" vertex="1">
          <mxGeometry x="585" y="470" width="180" height="40" as="geometry" />
        </mxCell>
        <mxCell id="_G-EZJmPh7v3S1hzNm8B-90" value="" style="edgeStyle=entityRelationEdgeStyle;startArrow=none;endArrow=none;segment=10;curved=1;sourcePerimeterSpacing=0;targetPerimeterSpacing=0;rounded=0;fontFamily=Comic Sans MS;" parent="1" source="_G-EZJmPh7v3S1hzNm8B-25" target="_G-EZJmPh7v3S1hzNm8B-89" edge="1">
          <mxGeometry x="625" y="473" width="80" height="20" as="geometry" />
        </mxCell>
        <mxCell id="_G-EZJmPh7v3S1hzNm8B-91" value="DG-Font，DG-Font++，CF-Font" style="whiteSpace=wrap;html=1;shape=partialRectangle;top=0;left=0;bottom=1;right=0;points=[[0,1],[1,1]];fillColor=none;align=center;verticalAlign=bottom;routingCenterY=0.5;snapToPoint=1;recursiveResize=0;autosize=1;treeFolding=1;treeMoving=1;newEdgeStyle={&quot;edgeStyle&quot;:&quot;entityRelationEdgeStyle&quot;,&quot;startArrow&quot;:&quot;none&quot;,&quot;endArrow&quot;:&quot;none&quot;,&quot;segment&quot;:10,&quot;curved&quot;:1,&quot;sourcePerimeterSpacing&quot;:0,&quot;targetPerimeterSpacing&quot;:0};fontFamily=Comic Sans MS;" parent="1" vertex="1">
          <mxGeometry x="800" y="460" width="220" height="30" as="geometry" />
        </mxCell>
        <mxCell id="_G-EZJmPh7v3S1hzNm8B-92" value="" style="edgeStyle=entityRelationEdgeStyle;startArrow=none;endArrow=none;segment=10;curved=1;sourcePerimeterSpacing=0;targetPerimeterSpacing=0;rounded=0;fontFamily=Comic Sans MS;" parent="1" source="_G-EZJmPh7v3S1hzNm8B-89" target="_G-EZJmPh7v3S1hzNm8B-91" edge="1">
          <mxGeometry x="730" y="473" width="80" height="20" as="geometry" />
        </mxCell>
        <mxCell id="_G-EZJmPh7v3S1hzNm8B-93" value="offset loss&lt;div&gt;专用于 DCN 网络&lt;/div&gt;" style="whiteSpace=wrap;html=1;shape=partialRectangle;top=0;left=0;bottom=1;right=0;points=[[0,1],[1,1]];fillColor=none;align=center;verticalAlign=bottom;routingCenterY=0.5;snapToPoint=1;recursiveResize=0;autosize=1;treeFolding=1;treeMoving=1;newEdgeStyle={&quot;edgeStyle&quot;:&quot;entityRelationEdgeStyle&quot;,&quot;startArrow&quot;:&quot;none&quot;,&quot;endArrow&quot;:&quot;none&quot;,&quot;segment&quot;:10,&quot;curved&quot;:1,&quot;sourcePerimeterSpacing&quot;:0,&quot;targetPerimeterSpacing&quot;:0};fontFamily=Comic Sans MS;" parent="1" vertex="1">
          <mxGeometry x="-210" y="425" width="130" height="40" as="geometry" />
        </mxCell>
        <mxCell id="_G-EZJmPh7v3S1hzNm8B-94" value="" style="edgeStyle=entityRelationEdgeStyle;startArrow=none;endArrow=none;segment=10;curved=1;sourcePerimeterSpacing=0;targetPerimeterSpacing=0;rounded=0;fontFamily=Comic Sans MS;" parent="1" source="_G-EZJmPh7v3S1hzNm8B-17" target="_G-EZJmPh7v3S1hzNm8B-93" edge="1">
          <mxGeometry x="-195" y="155" width="80" height="20" as="geometry" />
        </mxCell>
        <mxCell id="_G-EZJmPh7v3S1hzNm8B-95" value="DCN 网络新的 offset 计算方式" style="whiteSpace=wrap;html=1;shape=partialRectangle;top=0;left=0;bottom=1;right=0;points=[[0,1],[1,1]];fillColor=none;align=center;verticalAlign=bottom;routingCenterY=0.5;snapToPoint=1;recursiveResize=0;autosize=1;treeFolding=1;treeMoving=1;newEdgeStyle={&quot;edgeStyle&quot;:&quot;entityRelationEdgeStyle&quot;,&quot;startArrow&quot;:&quot;none&quot;,&quot;endArrow&quot;:&quot;none&quot;,&quot;segment&quot;:10,&quot;curved&quot;:1,&quot;sourcePerimeterSpacing&quot;:0,&quot;targetPerimeterSpacing&quot;:0};fontFamily=Comic Sans MS;" parent="1" vertex="1">
          <mxGeometry x="-240" y="-60" width="210" height="30" as="geometry" />
        </mxCell>
        <mxCell id="_G-EZJmPh7v3S1hzNm8B-96" value="" style="edgeStyle=entityRelationEdgeStyle;startArrow=none;endArrow=none;segment=10;curved=1;sourcePerimeterSpacing=0;targetPerimeterSpacing=0;rounded=0;fontFamily=Comic Sans MS;" parent="1" source="_G-EZJmPh7v3S1hzNm8B-13" target="_G-EZJmPh7v3S1hzNm8B-95" edge="1">
          <mxGeometry x="-145" y="-55" width="80" height="20" as="geometry" />
        </mxCell>
        <mxCell id="_G-EZJmPh7v3S1hzNm8B-97" value="seen/unseen font + seen/unseen character 组合" style="whiteSpace=wrap;html=1;shape=partialRectangle;top=0;left=0;bottom=1;right=0;points=[[0,1],[1,1]];fillColor=none;align=center;verticalAlign=bottom;routingCenterY=0.5;snapToPoint=1;recursiveResize=0;autosize=1;treeFolding=1;treeMoving=1;newEdgeStyle={&quot;edgeStyle&quot;:&quot;entityRelationEdgeStyle&quot;,&quot;startArrow&quot;:&quot;none&quot;,&quot;endArrow&quot;:&quot;none&quot;,&quot;segment&quot;:10,&quot;curved&quot;:1,&quot;sourcePerimeterSpacing&quot;:0,&quot;targetPerimeterSpacing&quot;:0};fontFamily=Comic Sans MS;" parent="1" vertex="1">
          <mxGeometry x="-418" y="1005" width="310" height="30" as="geometry" />
        </mxCell>
        <mxCell id="_G-EZJmPh7v3S1hzNm8B-98" value="" style="edgeStyle=entityRelationEdgeStyle;startArrow=none;endArrow=none;segment=10;curved=1;sourcePerimeterSpacing=0;targetPerimeterSpacing=0;rounded=0;fontFamily=Comic Sans MS;" parent="1" source="_G-EZJmPh7v3S1hzNm8B-15" target="_G-EZJmPh7v3S1hzNm8B-97" edge="1">
          <mxGeometry x="-215" y="560" width="80" height="20" as="geometry" />
        </mxCell>
        <mxCell id="_G-EZJmPh7v3S1hzNm8B-99" value="对比学习监督 style embedding&lt;div&gt;&lt;div&gt;/ FontNet 提出的&amp;nbsp;&lt;span style=&quot;background-color: transparent; color: light-dark(rgb(0, 0, 0), rgb(255, 255, 255));&quot;&gt;triplet loss (类似对比学习)&lt;/span&gt;&lt;/div&gt;&lt;/div&gt;" style="whiteSpace=wrap;html=1;shape=partialRectangle;top=0;left=0;bottom=1;right=0;points=[[0,1],[1,1]];fillColor=none;align=center;verticalAlign=bottom;routingCenterY=0.5;snapToPoint=1;recursiveResize=0;autosize=1;treeFolding=1;treeMoving=1;newEdgeStyle={&quot;edgeStyle&quot;:&quot;entityRelationEdgeStyle&quot;,&quot;startArrow&quot;:&quot;none&quot;,&quot;endArrow&quot;:&quot;none&quot;,&quot;segment&quot;:10,&quot;curved&quot;:1,&quot;sourcePerimeterSpacing&quot;:0,&quot;targetPerimeterSpacing&quot;:0};fontFamily=Comic Sans MS;" parent="1" vertex="1">
          <mxGeometry x="-370" y="130" width="290" height="40" as="geometry" />
        </mxCell>
        <mxCell id="_G-EZJmPh7v3S1hzNm8B-100" value="" style="edgeStyle=entityRelationEdgeStyle;startArrow=none;endArrow=none;segment=10;curved=1;sourcePerimeterSpacing=0;targetPerimeterSpacing=0;rounded=0;fontFamily=Comic Sans MS;" parent="1" source="_G-EZJmPh7v3S1hzNm8B-17" target="_G-EZJmPh7v3S1hzNm8B-99" edge="1">
          <mxGeometry x="-195" y="205" width="80" height="20" as="geometry" />
        </mxCell>
        <mxCell id="_G-EZJmPh7v3S1hzNm8B-101" value="在 style embedding 中增加对比学习" style="whiteSpace=wrap;html=1;shape=partialRectangle;top=0;left=0;bottom=1;right=0;points=[[0,1],[1,1]];fillColor=none;align=center;verticalAlign=bottom;routingCenterY=0.5;snapToPoint=1;recursiveResize=0;autosize=1;treeFolding=1;treeMoving=1;newEdgeStyle={&quot;edgeStyle&quot;:&quot;entityRelationEdgeStyle&quot;,&quot;startArrow&quot;:&quot;none&quot;,&quot;endArrow&quot;:&quot;none&quot;,&quot;segment&quot;:10,&quot;curved&quot;:1,&quot;sourcePerimeterSpacing&quot;:0,&quot;targetPerimeterSpacing&quot;:0};fontFamily=Comic Sans MS;" parent="1" vertex="1">
          <mxGeometry x="-270" y="-140" width="230" height="30" as="geometry" />
        </mxCell>
        <mxCell id="_G-EZJmPh7v3S1hzNm8B-102" value="" style="edgeStyle=entityRelationEdgeStyle;startArrow=none;endArrow=none;segment=10;curved=1;sourcePerimeterSpacing=0;targetPerimeterSpacing=0;rounded=0;fontFamily=Comic Sans MS;" parent="1" source="_G-EZJmPh7v3S1hzNm8B-13" target="_G-EZJmPh7v3S1hzNm8B-101" edge="1">
          <mxGeometry x="-145" y="-55" width="80" height="20" as="geometry" />
        </mxCell>
        <mxCell id="_G-EZJmPh7v3S1hzNm8B-103" value="正、负样本数据增强" style="whiteSpace=wrap;html=1;shape=partialRectangle;top=0;left=0;bottom=1;right=0;points=[[0,1],[1,1]];fillColor=none;align=center;verticalAlign=bottom;routingCenterY=0.5;snapToPoint=1;recursiveResize=0;autosize=1;treeFolding=1;treeMoving=1;newEdgeStyle={&quot;edgeStyle&quot;:&quot;entityRelationEdgeStyle&quot;,&quot;startArrow&quot;:&quot;none&quot;,&quot;endArrow&quot;:&quot;none&quot;,&quot;segment&quot;:10,&quot;curved&quot;:1,&quot;sourcePerimeterSpacing&quot;:0,&quot;targetPerimeterSpacing&quot;:0};fontFamily=Comic Sans MS;" parent="1" vertex="1">
          <mxGeometry x="-460" y="-160" width="150" height="30" as="geometry" />
        </mxCell>
        <mxCell id="_G-EZJmPh7v3S1hzNm8B-104" value="" style="edgeStyle=entityRelationEdgeStyle;startArrow=none;endArrow=none;segment=10;curved=1;sourcePerimeterSpacing=0;targetPerimeterSpacing=0;rounded=0;fontFamily=Comic Sans MS;" parent="1" source="_G-EZJmPh7v3S1hzNm8B-101" target="_G-EZJmPh7v3S1hzNm8B-103" edge="1">
          <mxGeometry x="-430" y="-135" width="80" height="20" as="geometry" />
        </mxCell>
        <mxCell id="_G-EZJmPh7v3S1hzNm8B-105" value="DG-Font++&lt;div&gt;正样本缩放、旋转、平移等&lt;/div&gt;" style="whiteSpace=wrap;html=1;shape=partialRectangle;top=0;left=0;bottom=1;right=0;points=[[0,1],[1,1]];fillColor=none;align=center;verticalAlign=bottom;routingCenterY=0.5;snapToPoint=1;recursiveResize=0;autosize=1;treeFolding=1;treeMoving=1;newEdgeStyle={&quot;edgeStyle&quot;:&quot;entityRelationEdgeStyle&quot;,&quot;startArrow&quot;:&quot;none&quot;,&quot;endArrow&quot;:&quot;none&quot;,&quot;segment&quot;:10,&quot;curved&quot;:1,&quot;sourcePerimeterSpacing&quot;:0,&quot;targetPerimeterSpacing&quot;:0};fontFamily=Comic Sans MS;" parent="1" vertex="1">
          <mxGeometry x="-695" y="-195" width="180" height="40" as="geometry" />
        </mxCell>
        <mxCell id="_G-EZJmPh7v3S1hzNm8B-106" value="" style="edgeStyle=entityRelationEdgeStyle;startArrow=none;endArrow=none;segment=10;curved=1;sourcePerimeterSpacing=0;targetPerimeterSpacing=0;rounded=0;fontFamily=Comic Sans MS;" parent="1" source="_G-EZJmPh7v3S1hzNm8B-103" target="_G-EZJmPh7v3S1hzNm8B-105" edge="1">
          <mxGeometry x="-620" y="-155" width="80" height="20" as="geometry" />
        </mxCell>
        <mxCell id="_G-EZJmPh7v3S1hzNm8B-109" value="component-level 的监督" style="whiteSpace=wrap;html=1;shape=partialRectangle;top=0;left=0;bottom=1;right=0;points=[[0,1],[1,1]];fillColor=none;align=center;verticalAlign=bottom;routingCenterY=0.5;snapToPoint=1;recursiveResize=0;autosize=1;treeFolding=1;treeMoving=1;newEdgeStyle={&quot;edgeStyle&quot;:&quot;entityRelationEdgeStyle&quot;,&quot;startArrow&quot;:&quot;none&quot;,&quot;endArrow&quot;:&quot;none&quot;,&quot;segment&quot;:10,&quot;curved&quot;:1,&quot;sourcePerimeterSpacing&quot;:0,&quot;targetPerimeterSpacing&quot;:0};fontFamily=Comic Sans MS;" parent="1" vertex="1">
          <mxGeometry x="-210" y="-20" width="170" height="30" as="geometry" />
        </mxCell>
        <mxCell id="_G-EZJmPh7v3S1hzNm8B-110" value="" style="edgeStyle=entityRelationEdgeStyle;startArrow=none;endArrow=none;segment=10;curved=1;sourcePerimeterSpacing=0;targetPerimeterSpacing=0;rounded=0;fontFamily=Comic Sans MS;" parent="1" source="_G-EZJmPh7v3S1hzNm8B-13" target="_G-EZJmPh7v3S1hzNm8B-109" edge="1">
          <mxGeometry x="-145" y="-55" width="80" height="20" as="geometry" />
        </mxCell>
        <mxCell id="_G-EZJmPh7v3S1hzNm8B-111" value="MX-Font&lt;div&gt;多个 expert 通过 component ce loss 间接监督&lt;/div&gt;" style="whiteSpace=wrap;html=1;shape=partialRectangle;top=0;left=0;bottom=1;right=0;points=[[0,1],[1,1]];fillColor=none;align=center;verticalAlign=bottom;routingCenterY=0.5;snapToPoint=1;recursiveResize=0;autosize=1;treeFolding=1;treeMoving=1;newEdgeStyle={&quot;edgeStyle&quot;:&quot;entityRelationEdgeStyle&quot;,&quot;startArrow&quot;:&quot;none&quot;,&quot;endArrow&quot;:&quot;none&quot;,&quot;segment&quot;:10,&quot;curved&quot;:1,&quot;sourcePerimeterSpacing&quot;:0,&quot;targetPerimeterSpacing&quot;:0};fontFamily=Comic Sans MS;" parent="1" vertex="1">
          <mxGeometry x="-545" y="-50" width="290" height="40" as="geometry" />
        </mxCell>
        <mxCell id="_G-EZJmPh7v3S1hzNm8B-112" value="" style="edgeStyle=entityRelationEdgeStyle;startArrow=none;endArrow=none;segment=10;curved=1;sourcePerimeterSpacing=0;targetPerimeterSpacing=0;rounded=0;fontFamily=Comic Sans MS;" parent="1" source="_G-EZJmPh7v3S1hzNm8B-109" target="_G-EZJmPh7v3S1hzNm8B-111" edge="1">
          <mxGeometry x="-370" y="-15" width="80" height="20" as="geometry" />
        </mxCell>
        <mxCell id="_G-EZJmPh7v3S1hzNm8B-113" value="content 与 style 的解耦" style="whiteSpace=wrap;html=1;shape=partialRectangle;top=0;left=0;bottom=1;right=0;points=[[0,1],[1,1]];fillColor=none;align=center;verticalAlign=bottom;routingCenterY=0.5;snapToPoint=1;recursiveResize=0;autosize=1;treeFolding=1;treeMoving=1;newEdgeStyle={&quot;edgeStyle&quot;:&quot;entityRelationEdgeStyle&quot;,&quot;startArrow&quot;:&quot;none&quot;,&quot;endArrow&quot;:&quot;none&quot;,&quot;segment&quot;:10,&quot;curved&quot;:1,&quot;sourcePerimeterSpacing&quot;:0,&quot;targetPerimeterSpacing&quot;:0};fontFamily=Comic Sans MS;" parent="1" vertex="1">
          <mxGeometry x="-205" y="-195" width="170" height="30" as="geometry" />
        </mxCell>
        <mxCell id="_G-EZJmPh7v3S1hzNm8B-114" value="" style="edgeStyle=entityRelationEdgeStyle;startArrow=none;endArrow=none;segment=10;curved=1;sourcePerimeterSpacing=0;targetPerimeterSpacing=0;rounded=0;fontFamily=Comic Sans MS;" parent="1" source="_G-EZJmPh7v3S1hzNm8B-13" target="_G-EZJmPh7v3S1hzNm8B-113" edge="1">
          <mxGeometry x="-145" y="-55" width="80" height="20" as="geometry" />
        </mxCell>
        <mxCell id="_G-EZJmPh7v3S1hzNm8B-115" value="&lt;div&gt;MX-Font&lt;/div&gt;content feature 通过 style classifier 的 ce loss 为均匀分布；style feature 亦然" style="whiteSpace=wrap;html=1;shape=partialRectangle;top=0;left=0;bottom=1;right=0;points=[[0,1],[1,1]];fillColor=none;align=center;verticalAlign=bottom;routingCenterY=0.5;snapToPoint=1;recursiveResize=0;autosize=1;treeFolding=1;treeMoving=1;newEdgeStyle={&quot;edgeStyle&quot;:&quot;entityRelationEdgeStyle&quot;,&quot;startArrow&quot;:&quot;none&quot;,&quot;endArrow&quot;:&quot;none&quot;,&quot;segment&quot;:10,&quot;curved&quot;:1,&quot;sourcePerimeterSpacing&quot;:0,&quot;targetPerimeterSpacing&quot;:0};fontFamily=Comic Sans MS;" parent="1" vertex="1">
          <mxGeometry x="-720" y="-275" width="480" height="40" as="geometry" />
        </mxCell>
        <mxCell id="_G-EZJmPh7v3S1hzNm8B-116" value="" style="edgeStyle=entityRelationEdgeStyle;startArrow=none;endArrow=none;segment=10;curved=1;sourcePerimeterSpacing=0;targetPerimeterSpacing=0;rounded=0;fontFamily=Comic Sans MS;" parent="1" source="_G-EZJmPh7v3S1hzNm8B-113" target="_G-EZJmPh7v3S1hzNm8B-115" edge="1">
          <mxGeometry x="-365" y="-175" width="80" height="20" as="geometry" />
        </mxCell>
        <mxCell id="_G-EZJmPh7v3S1hzNm8B-117" value="&lt;div&gt;MX-Font&lt;/div&gt;HSIC 算法监督独立性" style="whiteSpace=wrap;html=1;shape=partialRectangle;top=0;left=0;bottom=1;right=0;points=[[0,1],[1,1]];fillColor=none;align=center;verticalAlign=bottom;routingCenterY=0.5;snapToPoint=1;recursiveResize=0;autosize=1;treeFolding=1;treeMoving=1;newEdgeStyle={&quot;edgeStyle&quot;:&quot;entityRelationEdgeStyle&quot;,&quot;startArrow&quot;:&quot;none&quot;,&quot;endArrow&quot;:&quot;none&quot;,&quot;segment&quot;:10,&quot;curved&quot;:1,&quot;sourcePerimeterSpacing&quot;:0,&quot;targetPerimeterSpacing&quot;:0};fontFamily=Comic Sans MS;" parent="1" vertex="1">
          <mxGeometry x="-400" y="-325" width="160" height="40" as="geometry" />
        </mxCell>
        <mxCell id="_G-EZJmPh7v3S1hzNm8B-118" value="" style="edgeStyle=entityRelationEdgeStyle;startArrow=none;endArrow=none;segment=10;curved=1;sourcePerimeterSpacing=0;targetPerimeterSpacing=0;rounded=0;fontFamily=Comic Sans MS;" parent="1" source="_G-EZJmPh7v3S1hzNm8B-113" target="_G-EZJmPh7v3S1hzNm8B-117" edge="1">
          <mxGeometry x="-370" y="-195" width="80" height="20" as="geometry" />
        </mxCell>
        <mxCell id="_G-EZJmPh7v3S1hzNm8B-119" value="MX-Font ++" style="whiteSpace=wrap;html=1;shape=partialRectangle;top=0;left=0;bottom=1;right=0;points=[[0,1],[1,1]];fillColor=none;align=center;verticalAlign=bottom;routingCenterY=0.5;snapToPoint=1;recursiveResize=0;autosize=1;treeFolding=1;treeMoving=1;newEdgeStyle={&quot;edgeStyle&quot;:&quot;entityRelationEdgeStyle&quot;,&quot;startArrow&quot;:&quot;none&quot;,&quot;endArrow&quot;:&quot;none&quot;,&quot;segment&quot;:10,&quot;curved&quot;:1,&quot;sourcePerimeterSpacing&quot;:0,&quot;targetPerimeterSpacing&quot;:0};fontFamily=Comic Sans MS;" parent="1" vertex="1">
          <mxGeometry x="750" y="425" width="110" height="30" as="geometry" />
        </mxCell>
        <mxCell id="_G-EZJmPh7v3S1hzNm8B-120" value="" style="edgeStyle=entityRelationEdgeStyle;startArrow=none;endArrow=none;segment=10;curved=1;sourcePerimeterSpacing=0;targetPerimeterSpacing=0;rounded=0;fontFamily=Comic Sans MS;" parent="1" source="_G-EZJmPh7v3S1hzNm8B-27" target="_G-EZJmPh7v3S1hzNm8B-119" edge="1">
          <mxGeometry x="770" y="433" width="80" height="20" as="geometry" />
        </mxCell>
        <mxCell id="_G-EZJmPh7v3S1hzNm8B-121" value="ROI (mask 增强 attn map)" style="whiteSpace=wrap;html=1;shape=partialRectangle;top=0;left=0;bottom=1;right=0;points=[[0,1],[1,1]];fillColor=none;align=center;verticalAlign=bottom;routingCenterY=0.5;snapToPoint=1;recursiveResize=0;autosize=1;treeFolding=1;treeMoving=1;newEdgeStyle={&quot;edgeStyle&quot;:&quot;entityRelationEdgeStyle&quot;,&quot;startArrow&quot;:&quot;none&quot;,&quot;endArrow&quot;:&quot;none&quot;,&quot;segment&quot;:10,&quot;curved&quot;:1,&quot;sourcePerimeterSpacing&quot;:0,&quot;targetPerimeterSpacing&quot;:0};fontFamily=Comic Sans MS;" parent="1" vertex="1">
          <mxGeometry x="585" y="525" width="180" height="30" as="geometry" />
        </mxCell>
        <mxCell id="_G-EZJmPh7v3S1hzNm8B-122" value="" style="edgeStyle=entityRelationEdgeStyle;startArrow=none;endArrow=none;segment=10;curved=1;sourcePerimeterSpacing=0;targetPerimeterSpacing=0;rounded=0;fontFamily=Comic Sans MS;" parent="1" source="_G-EZJmPh7v3S1hzNm8B-25" target="_G-EZJmPh7v3S1hzNm8B-121" edge="1">
          <mxGeometry x="625" y="473" width="80" height="20" as="geometry" />
        </mxCell>
        <mxCell id="_G-EZJmPh7v3S1hzNm8B-123" value="&lt;div&gt;MX-Font ++&lt;/div&gt;style 向量和 content 向量尽量方向相反" style="whiteSpace=wrap;html=1;shape=partialRectangle;top=0;left=0;bottom=1;right=0;points=[[0,1],[1,1]];fillColor=none;align=center;verticalAlign=bottom;routingCenterY=0.5;snapToPoint=1;recursiveResize=0;autosize=1;treeFolding=1;treeMoving=1;newEdgeStyle={&quot;edgeStyle&quot;:&quot;entityRelationEdgeStyle&quot;,&quot;startArrow&quot;:&quot;none&quot;,&quot;endArrow&quot;:&quot;none&quot;,&quot;segment&quot;:10,&quot;curved&quot;:1,&quot;sourcePerimeterSpacing&quot;:0,&quot;targetPerimeterSpacing&quot;:0};fontFamily=Comic Sans MS;" parent="1" vertex="1">
          <mxGeometry x="-515" y="-235" width="250" height="40" as="geometry" />
        </mxCell>
        <mxCell id="_G-EZJmPh7v3S1hzNm8B-124" value="" style="edgeStyle=entityRelationEdgeStyle;startArrow=none;endArrow=none;segment=10;curved=1;sourcePerimeterSpacing=0;targetPerimeterSpacing=0;rounded=0;fontFamily=Comic Sans MS;" parent="1" source="_G-EZJmPh7v3S1hzNm8B-113" target="_G-EZJmPh7v3S1hzNm8B-123" edge="1">
          <mxGeometry x="-370" y="-365" width="80" height="20" as="geometry" />
        </mxCell>
        <mxCell id="_G-EZJmPh7v3S1hzNm8B-126" value="skeleton&lt;div&gt;Zhang-Suen 算法&lt;/div&gt;" style="whiteSpace=wrap;html=1;shape=partialRectangle;top=0;left=0;bottom=1;right=0;points=[[0,1],[1,1]];fillColor=none;align=center;verticalAlign=bottom;routingCenterY=0.5;snapToPoint=1;recursiveResize=0;autosize=1;treeFolding=1;treeMoving=1;newEdgeStyle={&quot;edgeStyle&quot;:&quot;entityRelationEdgeStyle&quot;,&quot;startArrow&quot;:&quot;none&quot;,&quot;endArrow&quot;:&quot;none&quot;,&quot;segment&quot;:10,&quot;curved&quot;:1,&quot;sourcePerimeterSpacing&quot;:0,&quot;targetPerimeterSpacing&quot;:0};fontFamily=Comic Sans MS;" parent="1" vertex="1">
          <mxGeometry x="695" y="-65" width="130" height="40" as="geometry" />
        </mxCell>
        <mxCell id="_G-EZJmPh7v3S1hzNm8B-127" value="" style="edgeStyle=entityRelationEdgeStyle;startArrow=none;endArrow=none;segment=10;curved=1;sourcePerimeterSpacing=0;targetPerimeterSpacing=0;rounded=0;fontFamily=Comic Sans MS;" parent="1" source="_G-EZJmPh7v3S1hzNm8B-11" target="_G-EZJmPh7v3S1hzNm8B-126" edge="1">
          <mxGeometry x="720" y="-55" width="80" height="20" as="geometry" />
        </mxCell>
        <mxCell id="_G-EZJmPh7v3S1hzNm8B-128" value="self attn +cross attn" style="whiteSpace=wrap;html=1;shape=partialRectangle;top=0;left=0;bottom=1;right=0;points=[[0,1],[1,1]];fillColor=none;align=center;verticalAlign=bottom;routingCenterY=0.5;snapToPoint=1;recursiveResize=0;autosize=1;treeFolding=1;treeMoving=1;newEdgeStyle={&quot;edgeStyle&quot;:&quot;entityRelationEdgeStyle&quot;,&quot;startArrow&quot;:&quot;none&quot;,&quot;endArrow&quot;:&quot;none&quot;,&quot;segment&quot;:10,&quot;curved&quot;:1,&quot;sourcePerimeterSpacing&quot;:0,&quot;targetPerimeterSpacing&quot;:0};fontFamily=Comic Sans MS;" parent="1" vertex="1">
          <mxGeometry x="580" y="310" width="160" height="30" as="geometry" />
        </mxCell>
        <mxCell id="_G-EZJmPh7v3S1hzNm8B-129" value="" style="edgeStyle=entityRelationEdgeStyle;startArrow=none;endArrow=none;segment=10;curved=1;sourcePerimeterSpacing=0;targetPerimeterSpacing=0;rounded=0;fontFamily=Comic Sans MS;" parent="1" source="_G-EZJmPh7v3S1hzNm8B-25" target="_G-EZJmPh7v3S1hzNm8B-128" edge="1">
          <mxGeometry x="625" y="473" width="80" height="20" as="geometry" />
        </mxCell>
        <mxCell id="_G-EZJmPh7v3S1hzNm8B-130" value="feature map level" style="whiteSpace=wrap;html=1;shape=partialRectangle;top=0;left=0;bottom=1;right=0;points=[[0,1],[1,1]];fillColor=none;align=center;verticalAlign=bottom;routingCenterY=0.5;snapToPoint=1;recursiveResize=0;autosize=1;treeFolding=1;treeMoving=1;newEdgeStyle={&quot;edgeStyle&quot;:&quot;entityRelationEdgeStyle&quot;,&quot;startArrow&quot;:&quot;none&quot;,&quot;endArrow&quot;:&quot;none&quot;,&quot;segment&quot;:10,&quot;curved&quot;:1,&quot;sourcePerimeterSpacing&quot;:0,&quot;targetPerimeterSpacing&quot;:0};fontFamily=Comic Sans MS;" parent="1" vertex="1">
          <mxGeometry x="782" y="280" width="140" height="30" as="geometry" />
        </mxCell>
        <mxCell id="_G-EZJmPh7v3S1hzNm8B-131" value="" style="edgeStyle=entityRelationEdgeStyle;startArrow=none;endArrow=none;segment=10;curved=1;sourcePerimeterSpacing=0;targetPerimeterSpacing=0;rounded=0;fontFamily=Comic Sans MS;" parent="1" source="_G-EZJmPh7v3S1hzNm8B-128" target="_G-EZJmPh7v3S1hzNm8B-130" edge="1">
          <mxGeometry x="750" y="375" width="80" height="20" as="geometry" />
        </mxCell>
        <mxCell id="_G-EZJmPh7v3S1hzNm8B-132" value="SE-GAN" style="whiteSpace=wrap;html=1;shape=partialRectangle;top=0;left=0;bottom=1;right=0;points=[[0,1],[1,1]];fillColor=none;align=center;verticalAlign=bottom;routingCenterY=0.5;snapToPoint=1;recursiveResize=0;autosize=1;treeFolding=1;treeMoving=1;newEdgeStyle={&quot;edgeStyle&quot;:&quot;entityRelationEdgeStyle&quot;,&quot;startArrow&quot;:&quot;none&quot;,&quot;endArrow&quot;:&quot;none&quot;,&quot;segment&quot;:10,&quot;curved&quot;:1,&quot;sourcePerimeterSpacing&quot;:0,&quot;targetPerimeterSpacing&quot;:0};fontFamily=Comic Sans MS;" parent="1" vertex="1">
          <mxGeometry x="957" y="302" width="90" height="30" as="geometry" />
        </mxCell>
        <mxCell id="_G-EZJmPh7v3S1hzNm8B-133" value="" style="edgeStyle=entityRelationEdgeStyle;startArrow=none;endArrow=none;segment=10;curved=1;sourcePerimeterSpacing=0;targetPerimeterSpacing=0;rounded=0;fontFamily=Comic Sans MS;" parent="1" source="_G-EZJmPh7v3S1hzNm8B-130" target="_G-EZJmPh7v3S1hzNm8B-132" edge="1">
          <mxGeometry x="930" y="345" width="80" height="20" as="geometry" />
        </mxCell>
        <mxCell id="_G-EZJmPh7v3S1hzNm8B-134" value="在 channel 上 concat" style="whiteSpace=wrap;html=1;shape=partialRectangle;top=0;left=0;bottom=1;right=0;points=[[0,1],[1,1]];fillColor=none;align=center;verticalAlign=bottom;routingCenterY=0.5;snapToPoint=1;recursiveResize=0;autosize=1;treeFolding=1;treeMoving=1;newEdgeStyle={&quot;edgeStyle&quot;:&quot;entityRelationEdgeStyle&quot;,&quot;startArrow&quot;:&quot;none&quot;,&quot;endArrow&quot;:&quot;none&quot;,&quot;segment&quot;:10,&quot;curved&quot;:1,&quot;sourcePerimeterSpacing&quot;:0,&quot;targetPerimeterSpacing&quot;:0};fontFamily=Comic Sans MS;" parent="1" vertex="1">
          <mxGeometry x="585" y="572" width="150" height="30" as="geometry" />
        </mxCell>
        <mxCell id="_G-EZJmPh7v3S1hzNm8B-135" value="" style="edgeStyle=entityRelationEdgeStyle;startArrow=none;endArrow=none;segment=10;curved=1;sourcePerimeterSpacing=0;targetPerimeterSpacing=0;rounded=0;fontFamily=Comic Sans MS;" parent="1" source="_G-EZJmPh7v3S1hzNm8B-25" target="_G-EZJmPh7v3S1hzNm8B-134" edge="1">
          <mxGeometry x="625" y="473" width="80" height="20" as="geometry" />
        </mxCell>
        <mxCell id="_G-EZJmPh7v3S1hzNm8B-136" value="SGCE-Font&lt;div&gt;concat skeleton&lt;/div&gt;" style="whiteSpace=wrap;html=1;shape=partialRectangle;top=0;left=0;bottom=1;right=0;points=[[0,1],[1,1]];fillColor=none;align=center;verticalAlign=bottom;routingCenterY=0.5;snapToPoint=1;recursiveResize=0;autosize=1;treeFolding=1;treeMoving=1;newEdgeStyle={&quot;edgeStyle&quot;:&quot;entityRelationEdgeStyle&quot;,&quot;startArrow&quot;:&quot;none&quot;,&quot;endArrow&quot;:&quot;none&quot;,&quot;segment&quot;:10,&quot;curved&quot;:1,&quot;sourcePerimeterSpacing&quot;:0,&quot;targetPerimeterSpacing&quot;:0};fontFamily=Comic Sans MS;" parent="1" vertex="1" collapsed="1">
          <mxGeometry x="770" y="547" width="130" height="40" as="geometry" />
        </mxCell>
        <mxCell id="_G-EZJmPh7v3S1hzNm8B-137" value="" style="edgeStyle=entityRelationEdgeStyle;startArrow=none;endArrow=none;segment=10;curved=1;sourcePerimeterSpacing=0;targetPerimeterSpacing=0;rounded=0;fontFamily=Comic Sans MS;" parent="1" source="_G-EZJmPh7v3S1hzNm8B-134" target="_G-EZJmPh7v3S1hzNm8B-136" edge="1">
          <mxGeometry x="800" y="575" width="80" height="20" as="geometry" />
        </mxCell>
        <mxCell id="_G-EZJmPh7v3S1hzNm8B-138" value="embedding level" style="whiteSpace=wrap;html=1;shape=partialRectangle;top=0;left=0;bottom=1;right=0;points=[[0,1],[1,1]];fillColor=none;align=center;verticalAlign=bottom;routingCenterY=0.5;snapToPoint=1;recursiveResize=0;autosize=1;treeFolding=1;treeMoving=1;newEdgeStyle={&quot;edgeStyle&quot;:&quot;entityRelationEdgeStyle&quot;,&quot;startArrow&quot;:&quot;none&quot;,&quot;endArrow&quot;:&quot;none&quot;,&quot;segment&quot;:10,&quot;curved&quot;:1,&quot;sourcePerimeterSpacing&quot;:0,&quot;targetPerimeterSpacing&quot;:0};fontFamily=Comic Sans MS;" parent="1" vertex="1">
          <mxGeometry x="787" y="243" width="130" height="30" as="geometry" />
        </mxCell>
        <mxCell id="_G-EZJmPh7v3S1hzNm8B-139" value="" style="edgeStyle=entityRelationEdgeStyle;startArrow=none;endArrow=none;segment=10;curved=1;sourcePerimeterSpacing=0;targetPerimeterSpacing=0;rounded=0;fontFamily=Comic Sans MS;" parent="1" source="_G-EZJmPh7v3S1hzNm8B-128" target="_G-EZJmPh7v3S1hzNm8B-138" edge="1">
          <mxGeometry x="745" y="467" width="80" height="20" as="geometry" />
        </mxCell>
        <mxCell id="_G-EZJmPh7v3S1hzNm8B-140" value="XMP-Font&lt;div&gt;将 stroke-level embedding 和 character-level embedding 相融合&lt;/div&gt;" style="whiteSpace=wrap;html=1;shape=partialRectangle;top=0;left=0;bottom=1;right=0;points=[[0,1],[1,1]];fillColor=none;align=center;verticalAlign=bottom;routingCenterY=0.5;snapToPoint=1;recursiveResize=0;autosize=1;treeFolding=1;treeMoving=1;newEdgeStyle={&quot;edgeStyle&quot;:&quot;entityRelationEdgeStyle&quot;,&quot;startArrow&quot;:&quot;none&quot;,&quot;endArrow&quot;:&quot;none&quot;,&quot;segment&quot;:10,&quot;curved&quot;:1,&quot;sourcePerimeterSpacing&quot;:0,&quot;targetPerimeterSpacing&quot;:0};fontFamily=Comic Sans MS;" parent="1" vertex="1">
          <mxGeometry x="967" y="203" width="390" height="40" as="geometry" />
        </mxCell>
        <mxCell id="_G-EZJmPh7v3S1hzNm8B-141" value="" style="edgeStyle=entityRelationEdgeStyle;startArrow=none;endArrow=none;segment=10;curved=1;sourcePerimeterSpacing=0;targetPerimeterSpacing=0;rounded=0;fontFamily=Comic Sans MS;" parent="1" source="_G-EZJmPh7v3S1hzNm8B-138" target="_G-EZJmPh7v3S1hzNm8B-140" edge="1">
          <mxGeometry x="910" y="395" width="80" height="20" as="geometry" />
        </mxCell>
        <mxCell id="_G-EZJmPh7v3S1hzNm8B-142" value="在更细粒度上重新使用 character-level 的 loss" style="whiteSpace=wrap;html=1;shape=partialRectangle;top=0;left=0;bottom=1;right=0;points=[[0,1],[1,1]];fillColor=none;align=center;verticalAlign=bottom;routingCenterY=0.5;snapToPoint=1;recursiveResize=0;autosize=1;treeFolding=1;treeMoving=1;newEdgeStyle={&quot;edgeStyle&quot;:&quot;entityRelationEdgeStyle&quot;,&quot;startArrow&quot;:&quot;none&quot;,&quot;endArrow&quot;:&quot;none&quot;,&quot;segment&quot;:10,&quot;curved&quot;:1,&quot;sourcePerimeterSpacing&quot;:0,&quot;targetPerimeterSpacing&quot;:0};fontFamily=Comic Sans MS;" parent="1" vertex="1">
          <mxGeometry x="-365" y="480" width="290" height="30" as="geometry" />
        </mxCell>
        <mxCell id="_G-EZJmPh7v3S1hzNm8B-143" value="" style="edgeStyle=entityRelationEdgeStyle;startArrow=none;endArrow=none;segment=10;curved=1;sourcePerimeterSpacing=0;targetPerimeterSpacing=0;rounded=0;fontFamily=Comic Sans MS;" parent="1" source="_G-EZJmPh7v3S1hzNm8B-17" target="_G-EZJmPh7v3S1hzNm8B-142" edge="1">
          <mxGeometry x="-195" y="205" width="80" height="20" as="geometry" />
        </mxCell>
        <mxCell id="_G-EZJmPh7v3S1hzNm8B-144" value="CG-GAN&lt;div&gt;通过 attn map 关注不同的 component&lt;/div&gt;" style="whiteSpace=wrap;html=1;shape=partialRectangle;top=0;left=0;bottom=1;right=0;points=[[0,1],[1,1]];fillColor=none;align=center;verticalAlign=bottom;routingCenterY=0.5;snapToPoint=1;recursiveResize=0;autosize=1;treeFolding=1;treeMoving=1;newEdgeStyle={&quot;edgeStyle&quot;:&quot;entityRelationEdgeStyle&quot;,&quot;startArrow&quot;:&quot;none&quot;,&quot;endArrow&quot;:&quot;none&quot;,&quot;segment&quot;:10,&quot;curved&quot;:1,&quot;sourcePerimeterSpacing&quot;:0,&quot;targetPerimeterSpacing&quot;:0};fontFamily=Comic Sans MS;" parent="1" vertex="1">
          <mxGeometry x="-645" y="440" width="240" height="40" as="geometry" />
        </mxCell>
        <mxCell id="_G-EZJmPh7v3S1hzNm8B-145" value="" style="edgeStyle=entityRelationEdgeStyle;startArrow=none;endArrow=none;segment=10;curved=1;sourcePerimeterSpacing=0;targetPerimeterSpacing=0;rounded=0;fontFamily=Comic Sans MS;" parent="1" source="_G-EZJmPh7v3S1hzNm8B-142" target="_G-EZJmPh7v3S1hzNm8B-144" edge="1">
          <mxGeometry x="-550" y="365" width="80" height="20" as="geometry" />
        </mxCell>
        <mxCell id="_G-EZJmPh7v3S1hzNm8B-146" value="content image / gt image / reference image 自己生成自己" style="whiteSpace=wrap;html=1;shape=partialRectangle;top=0;left=0;bottom=1;right=0;points=[[0,1],[1,1]];fillColor=none;align=center;verticalAlign=bottom;routingCenterY=0.5;snapToPoint=1;recursiveResize=0;autosize=1;treeFolding=1;treeMoving=1;newEdgeStyle={&quot;edgeStyle&quot;:&quot;entityRelationEdgeStyle&quot;,&quot;startArrow&quot;:&quot;none&quot;,&quot;endArrow&quot;:&quot;none&quot;,&quot;segment&quot;:10,&quot;curved&quot;:1,&quot;sourcePerimeterSpacing&quot;:0,&quot;targetPerimeterSpacing&quot;:0};fontFamily=Comic Sans MS;" parent="1" vertex="1">
          <mxGeometry x="-425" y="60" width="360" height="30" as="geometry" />
        </mxCell>
        <mxCell id="_G-EZJmPh7v3S1hzNm8B-147" value="" style="edgeStyle=entityRelationEdgeStyle;startArrow=none;endArrow=none;segment=10;curved=1;sourcePerimeterSpacing=0;targetPerimeterSpacing=0;rounded=0;fontFamily=Comic Sans MS;" parent="1" source="_G-EZJmPh7v3S1hzNm8B-17" target="_G-EZJmPh7v3S1hzNm8B-146" edge="1">
          <mxGeometry x="-205" y="325" width="80" height="20" as="geometry" />
        </mxCell>
        <mxCell id="_G-EZJmPh7v3S1hzNm8B-148" value="CG-GAN" style="whiteSpace=wrap;html=1;shape=partialRectangle;top=0;left=0;bottom=1;right=0;points=[[0,1],[1,1]];fillColor=none;align=center;verticalAlign=bottom;routingCenterY=0.5;snapToPoint=1;recursiveResize=0;autosize=1;treeFolding=1;treeMoving=1;newEdgeStyle={&quot;edgeStyle&quot;:&quot;entityRelationEdgeStyle&quot;,&quot;startArrow&quot;:&quot;none&quot;,&quot;endArrow&quot;:&quot;none&quot;,&quot;segment&quot;:10,&quot;curved&quot;:1,&quot;sourcePerimeterSpacing&quot;:0,&quot;targetPerimeterSpacing&quot;:0};fontFamily=Comic Sans MS;" parent="1" vertex="1">
          <mxGeometry x="-545" y="70" width="90" height="30" as="geometry" />
        </mxCell>
        <mxCell id="_G-EZJmPh7v3S1hzNm8B-149" value="" style="edgeStyle=entityRelationEdgeStyle;startArrow=none;endArrow=none;segment=10;curved=1;sourcePerimeterSpacing=0;targetPerimeterSpacing=0;rounded=0;fontFamily=Comic Sans MS;" parent="1" source="_G-EZJmPh7v3S1hzNm8B-146" target="_G-EZJmPh7v3S1hzNm8B-148" edge="1">
          <mxGeometry x="-570" y="95" width="80" height="20" as="geometry" />
        </mxCell>
        <mxCell id="_G-EZJmPh7v3S1hzNm8B-152" value="content embedding 作为 query，style embedding 作为 key 和 value" style="whiteSpace=wrap;html=1;shape=partialRectangle;top=0;left=0;bottom=1;right=0;points=[[0,1],[1,1]];fillColor=none;align=center;verticalAlign=bottom;routingCenterY=0.5;snapToPoint=1;recursiveResize=0;autosize=1;treeFolding=1;treeMoving=1;newEdgeStyle={&quot;edgeStyle&quot;:&quot;entityRelationEdgeStyle&quot;,&quot;startArrow&quot;:&quot;none&quot;,&quot;endArrow&quot;:&quot;none&quot;,&quot;segment&quot;:10,&quot;curved&quot;:1,&quot;sourcePerimeterSpacing&quot;:0,&quot;targetPerimeterSpacing&quot;:0};fontFamily=Comic Sans MS;" parent="1" vertex="1">
          <mxGeometry x="967" y="263" width="410" height="30" as="geometry" />
        </mxCell>
        <mxCell id="_G-EZJmPh7v3S1hzNm8B-153" value="" style="edgeStyle=entityRelationEdgeStyle;startArrow=none;endArrow=none;segment=10;curved=1;sourcePerimeterSpacing=0;targetPerimeterSpacing=0;rounded=0;fontFamily=Comic Sans MS;" parent="1" source="_G-EZJmPh7v3S1hzNm8B-138" target="_G-EZJmPh7v3S1hzNm8B-152" edge="1">
          <mxGeometry x="910" y="395" width="80" height="20" as="geometry" />
        </mxCell>
        <mxCell id="_G-EZJmPh7v3S1hzNm8B-156" value="Fs-Font" style="whiteSpace=wrap;html=1;shape=partialRectangle;top=0;left=0;bottom=1;right=0;points=[[0,1],[1,1]];fillColor=none;align=center;verticalAlign=bottom;routingCenterY=0.5;snapToPoint=1;recursiveResize=0;autosize=1;treeFolding=1;treeMoving=1;newEdgeStyle={&quot;edgeStyle&quot;:&quot;entityRelationEdgeStyle&quot;,&quot;startArrow&quot;:&quot;none&quot;,&quot;endArrow&quot;:&quot;none&quot;,&quot;segment&quot;:10,&quot;curved&quot;:1,&quot;sourcePerimeterSpacing&quot;:0,&quot;targetPerimeterSpacing&quot;:0};fontFamily=Comic Sans MS;" parent="1" vertex="1">
          <mxGeometry x="-535" y="40" width="80" height="30" as="geometry" />
        </mxCell>
        <mxCell id="_G-EZJmPh7v3S1hzNm8B-157" value="" style="edgeStyle=entityRelationEdgeStyle;startArrow=none;endArrow=none;segment=10;curved=1;sourcePerimeterSpacing=0;targetPerimeterSpacing=0;rounded=0;fontFamily=Comic Sans MS;" parent="1" source="_G-EZJmPh7v3S1hzNm8B-146" target="_G-EZJmPh7v3S1hzNm8B-156" edge="1">
          <mxGeometry x="-570" y="65" width="80" height="20" as="geometry" />
        </mxCell>
        <mxCell id="_G-EZJmPh7v3S1hzNm8B-158" value="Fs-Font&lt;div&gt;通过分解表，让 reference set 中尽量包含 content image 中出现的 component&lt;/div&gt;" style="whiteSpace=wrap;html=1;shape=partialRectangle;top=0;left=0;bottom=1;right=0;points=[[0,1],[1,1]];fillColor=none;align=center;verticalAlign=bottom;routingCenterY=0.5;snapToPoint=1;recursiveResize=0;autosize=1;treeFolding=1;treeMoving=1;newEdgeStyle={&quot;edgeStyle&quot;:&quot;entityRelationEdgeStyle&quot;,&quot;startArrow&quot;:&quot;none&quot;,&quot;endArrow&quot;:&quot;none&quot;,&quot;segment&quot;:10,&quot;curved&quot;:1,&quot;sourcePerimeterSpacing&quot;:0,&quot;targetPerimeterSpacing&quot;:0};fontFamily=Comic Sans MS;" parent="1" vertex="1">
          <mxGeometry x="880" y="-150" width="470" height="40" as="geometry" />
        </mxCell>
        <mxCell id="_G-EZJmPh7v3S1hzNm8B-159" value="" style="edgeStyle=entityRelationEdgeStyle;startArrow=none;endArrow=none;segment=10;curved=1;sourcePerimeterSpacing=0;targetPerimeterSpacing=0;rounded=0;fontFamily=Comic Sans MS;" parent="1" source="_G-EZJmPh7v3S1hzNm8B-45" target="_G-EZJmPh7v3S1hzNm8B-158" edge="1">
          <mxGeometry x="907" y="5" width="80" height="20" as="geometry" />
        </mxCell>
        <mxCell id="_G-EZJmPh7v3S1hzNm8B-160" value="串行 + 并行 transformer" style="whiteSpace=wrap;html=1;shape=partialRectangle;top=0;left=0;bottom=1;right=0;points=[[0,1],[1,1]];fillColor=none;align=center;verticalAlign=bottom;routingCenterY=0.5;snapToPoint=1;recursiveResize=0;autosize=1;treeFolding=1;treeMoving=1;newEdgeStyle={&quot;edgeStyle&quot;:&quot;entityRelationEdgeStyle&quot;,&quot;startArrow&quot;:&quot;none&quot;,&quot;endArrow&quot;:&quot;none&quot;,&quot;segment&quot;:10,&quot;curved&quot;:1,&quot;sourcePerimeterSpacing&quot;:0,&quot;targetPerimeterSpacing&quot;:0};fontFamily=Comic Sans MS;" parent="1" vertex="1">
          <mxGeometry x="802" y="190" width="170" height="30" as="geometry" />
        </mxCell>
        <mxCell id="_G-EZJmPh7v3S1hzNm8B-161" value="" style="edgeStyle=entityRelationEdgeStyle;startArrow=none;endArrow=none;segment=10;curved=1;sourcePerimeterSpacing=0;targetPerimeterSpacing=0;rounded=0;fontFamily=Comic Sans MS;" parent="1" source="_G-EZJmPh7v3S1hzNm8B-128" target="_G-EZJmPh7v3S1hzNm8B-160" edge="1">
          <mxGeometry x="800" y="467" width="80" height="20" as="geometry" />
        </mxCell>
        <mxCell id="_G-EZJmPh7v3S1hzNm8B-162" value="FontTransformer&lt;div&gt;patchify + content id + style id + wubi 的 encoding&lt;/div&gt;" style="whiteSpace=wrap;html=1;shape=partialRectangle;top=0;left=0;bottom=1;right=0;points=[[0,1],[1,1]];fillColor=none;align=center;verticalAlign=bottom;routingCenterY=0.5;snapToPoint=1;recursiveResize=0;autosize=1;treeFolding=1;treeMoving=1;newEdgeStyle={&quot;edgeStyle&quot;:&quot;entityRelationEdgeStyle&quot;,&quot;startArrow&quot;:&quot;none&quot;,&quot;endArrow&quot;:&quot;none&quot;,&quot;segment&quot;:10,&quot;curved&quot;:1,&quot;sourcePerimeterSpacing&quot;:0,&quot;targetPerimeterSpacing&quot;:0};fontFamily=Comic Sans MS;" parent="1" vertex="1">
          <mxGeometry x="1012" y="155" width="320" height="40" as="geometry" />
        </mxCell>
        <mxCell id="_G-EZJmPh7v3S1hzNm8B-163" value="" style="edgeStyle=entityRelationEdgeStyle;startArrow=none;endArrow=none;segment=10;curved=1;sourcePerimeterSpacing=0;targetPerimeterSpacing=0;rounded=0;fontFamily=Comic Sans MS;" parent="1" source="_G-EZJmPh7v3S1hzNm8B-160" target="_G-EZJmPh7v3S1hzNm8B-162" edge="1">
          <mxGeometry x="1042" y="330" width="80" height="20" as="geometry" />
        </mxCell>
        <mxCell id="_G-EZJmPh7v3S1hzNm8B-164" value="encoder hidden state&lt;div&gt;专用于 diffusion&lt;/div&gt;" style="whiteSpace=wrap;html=1;shape=partialRectangle;top=0;left=0;bottom=1;right=0;points=[[0,1],[1,1]];fillColor=none;align=center;verticalAlign=bottom;routingCenterY=0.5;snapToPoint=1;recursiveResize=0;autosize=1;treeFolding=1;treeMoving=1;newEdgeStyle={&quot;edgeStyle&quot;:&quot;entityRelationEdgeStyle&quot;,&quot;startArrow&quot;:&quot;none&quot;,&quot;endArrow&quot;:&quot;none&quot;,&quot;segment&quot;:10,&quot;curved&quot;:1,&quot;sourcePerimeterSpacing&quot;:0,&quot;targetPerimeterSpacing&quot;:0};fontFamily=Comic Sans MS;" parent="1" vertex="1">
          <mxGeometry x="575" y="610" width="160" height="40" as="geometry" />
        </mxCell>
        <mxCell id="_G-EZJmPh7v3S1hzNm8B-165" value="" style="edgeStyle=entityRelationEdgeStyle;startArrow=none;endArrow=none;segment=10;curved=1;sourcePerimeterSpacing=0;targetPerimeterSpacing=0;rounded=0;fontFamily=Comic Sans MS;" parent="1" source="_G-EZJmPh7v3S1hzNm8B-25" target="_G-EZJmPh7v3S1hzNm8B-164" edge="1">
          <mxGeometry x="620" y="565" width="80" height="20" as="geometry" />
        </mxCell>
        <mxCell id="_G-EZJmPh7v3S1hzNm8B-166" value="&lt;div&gt;Diff-Font&lt;/div&gt;content id + style id + stroke encoding" style="whiteSpace=wrap;html=1;shape=partialRectangle;top=0;left=0;bottom=1;right=0;points=[[0,1],[1,1]];fillColor=none;align=center;verticalAlign=bottom;routingCenterY=0.5;snapToPoint=1;recursiveResize=0;autosize=1;treeFolding=1;treeMoving=1;newEdgeStyle={&quot;edgeStyle&quot;:&quot;entityRelationEdgeStyle&quot;,&quot;startArrow&quot;:&quot;none&quot;,&quot;endArrow&quot;:&quot;none&quot;,&quot;segment&quot;:10,&quot;curved&quot;:1,&quot;sourcePerimeterSpacing&quot;:0,&quot;targetPerimeterSpacing&quot;:0};fontFamily=Comic Sans MS;" parent="1" vertex="1">
          <mxGeometry x="782" y="592" width="250" height="40" as="geometry" />
        </mxCell>
        <mxCell id="_G-EZJmPh7v3S1hzNm8B-167" value="" style="edgeStyle=entityRelationEdgeStyle;startArrow=none;endArrow=none;segment=10;curved=1;sourcePerimeterSpacing=0;targetPerimeterSpacing=0;rounded=0;fontFamily=Comic Sans MS;" parent="1" source="_G-EZJmPh7v3S1hzNm8B-164" target="_G-EZJmPh7v3S1hzNm8B-166" edge="1">
          <mxGeometry x="800" y="710" width="80" height="20" as="geometry" />
        </mxCell>
        <mxCell id="_G-EZJmPh7v3S1hzNm8B-168" value="推理阶段增强" style="whiteSpace=wrap;html=1;rounded=1;arcSize=50;align=center;verticalAlign=middle;strokeWidth=1;autosize=1;spacing=4;treeFolding=1;treeMoving=1;newEdgeStyle={&quot;edgeStyle&quot;:&quot;entityRelationEdgeStyle&quot;,&quot;startArrow&quot;:&quot;none&quot;,&quot;endArrow&quot;:&quot;none&quot;,&quot;segment&quot;:10,&quot;curved&quot;:1,&quot;sourcePerimeterSpacing&quot;:0,&quot;targetPerimeterSpacing&quot;:0};fillColor=#d5e8d4;strokeColor=#82b366;fontFamily=Comic Sans MS;" parent="1" vertex="1">
          <mxGeometry x="465" y="890" width="120" height="30" as="geometry" />
        </mxCell>
        <mxCell id="_G-EZJmPh7v3S1hzNm8B-169" value="" style="edgeStyle=entityRelationEdgeStyle;startArrow=none;endArrow=none;segment=10;curved=1;sourcePerimeterSpacing=0;targetPerimeterSpacing=0;rounded=0;fontFamily=Comic Sans MS;" parent="1" source="_G-EZJmPh7v3S1hzNm8B-4" target="_G-EZJmPh7v3S1hzNm8B-168" edge="1">
          <mxGeometry x="490" y="287" width="80" height="26" as="geometry" />
        </mxCell>
        <mxCell id="_G-EZJmPh7v3S1hzNm8B-170" value="guidance" style="whiteSpace=wrap;html=1;shape=partialRectangle;top=0;left=0;bottom=1;right=0;points=[[0,1],[1,1]];fillColor=none;align=center;verticalAlign=bottom;routingCenterY=0.5;snapToPoint=1;recursiveResize=0;autosize=1;treeFolding=1;treeMoving=1;newEdgeStyle={&quot;edgeStyle&quot;:&quot;entityRelationEdgeStyle&quot;,&quot;startArrow&quot;:&quot;none&quot;,&quot;endArrow&quot;:&quot;none&quot;,&quot;segment&quot;:10,&quot;curved&quot;:1,&quot;sourcePerimeterSpacing&quot;:0,&quot;targetPerimeterSpacing&quot;:0};fontFamily=Comic Sans MS;" parent="1" vertex="1">
          <mxGeometry x="635" y="850" width="90" height="30" as="geometry" />
        </mxCell>
        <mxCell id="_G-EZJmPh7v3S1hzNm8B-171" value="" style="edgeStyle=entityRelationEdgeStyle;startArrow=none;endArrow=none;segment=10;curved=1;sourcePerimeterSpacing=0;targetPerimeterSpacing=0;rounded=0;fontFamily=Comic Sans MS;" parent="1" source="_G-EZJmPh7v3S1hzNm8B-168" target="_G-EZJmPh7v3S1hzNm8B-170" edge="1">
          <mxGeometry x="665" y="785" width="80" height="20" as="geometry" />
        </mxCell>
        <mxCell id="_G-EZJmPh7v3S1hzNm8B-172" value="Diff-Font" style="whiteSpace=wrap;html=1;shape=partialRectangle;top=0;left=0;bottom=1;right=0;points=[[0,1],[1,1]];fillColor=none;align=center;verticalAlign=bottom;routingCenterY=0.5;snapToPoint=1;recursiveResize=0;autosize=1;treeFolding=1;treeMoving=1;newEdgeStyle={&quot;edgeStyle&quot;:&quot;entityRelationEdgeStyle&quot;,&quot;startArrow&quot;:&quot;none&quot;,&quot;endArrow&quot;:&quot;none&quot;,&quot;segment&quot;:10,&quot;curved&quot;:1,&quot;sourcePerimeterSpacing&quot;:0,&quot;targetPerimeterSpacing&quot;:0};fontFamily=Comic Sans MS;" parent="1" vertex="1">
          <mxGeometry x="785" y="830" width="100" height="30" as="geometry" />
        </mxCell>
        <mxCell id="_G-EZJmPh7v3S1hzNm8B-173" value="" style="edgeStyle=entityRelationEdgeStyle;startArrow=none;endArrow=none;segment=10;curved=1;sourcePerimeterSpacing=0;targetPerimeterSpacing=0;rounded=0;fontFamily=Comic Sans MS;" parent="1" source="_G-EZJmPh7v3S1hzNm8B-170" target="_G-EZJmPh7v3S1hzNm8B-172" edge="1">
          <mxGeometry x="815" y="735" width="80" height="20" as="geometry" />
        </mxCell>
        <mxCell id="_G-EZJmPh7v3S1hzNm8B-176" value="FTransGAN&lt;br&gt;&lt;div&gt;在不同分辨率上融合&lt;/div&gt;" style="whiteSpace=wrap;html=1;shape=partialRectangle;top=0;left=0;bottom=1;right=0;points=[[0,1],[1,1]];fillColor=none;align=center;verticalAlign=bottom;routingCenterY=0.5;snapToPoint=1;recursiveResize=0;autosize=1;treeFolding=1;treeMoving=1;newEdgeStyle={&quot;edgeStyle&quot;:&quot;entityRelationEdgeStyle&quot;,&quot;startArrow&quot;:&quot;none&quot;,&quot;endArrow&quot;:&quot;none&quot;,&quot;segment&quot;:10,&quot;curved&quot;:1,&quot;sourcePerimeterSpacing&quot;:0,&quot;targetPerimeterSpacing&quot;:0};fontFamily=Comic Sans MS;" parent="1" vertex="1">
          <mxGeometry x="787" y="320" width="150" height="40" as="geometry" />
        </mxCell>
        <mxCell id="_G-EZJmPh7v3S1hzNm8B-177" value="" style="edgeStyle=entityRelationEdgeStyle;startArrow=none;endArrow=none;segment=10;curved=1;sourcePerimeterSpacing=0;targetPerimeterSpacing=0;rounded=0;fontFamily=Comic Sans MS;" parent="1" source="_G-EZJmPh7v3S1hzNm8B-128" target="_G-EZJmPh7v3S1hzNm8B-176" edge="1">
          <mxGeometry x="810" y="315" width="80" height="20" as="geometry" />
        </mxCell>
        <mxCell id="_G-EZJmPh7v3S1hzNm8B-178" value="&lt;div&gt;AGIS-Net&lt;/div&gt;在 pachify level 上计算 loss" style="whiteSpace=wrap;html=1;shape=partialRectangle;top=0;left=0;bottom=1;right=0;points=[[0,1],[1,1]];fillColor=none;align=center;verticalAlign=bottom;routingCenterY=0.5;snapToPoint=1;recursiveResize=0;autosize=1;treeFolding=1;treeMoving=1;newEdgeStyle={&quot;edgeStyle&quot;:&quot;entityRelationEdgeStyle&quot;,&quot;startArrow&quot;:&quot;none&quot;,&quot;endArrow&quot;:&quot;none&quot;,&quot;segment&quot;:10,&quot;curved&quot;:1,&quot;sourcePerimeterSpacing&quot;:0,&quot;targetPerimeterSpacing&quot;:0};fontFamily=Comic Sans MS;" parent="1" vertex="1">
          <mxGeometry x="-595" y="490" width="190" height="40" as="geometry" />
        </mxCell>
        <mxCell id="_G-EZJmPh7v3S1hzNm8B-179" value="" style="edgeStyle=entityRelationEdgeStyle;startArrow=none;endArrow=none;segment=10;curved=1;sourcePerimeterSpacing=0;targetPerimeterSpacing=0;rounded=0;fontFamily=Comic Sans MS;" parent="1" source="_G-EZJmPh7v3S1hzNm8B-142" target="_G-EZJmPh7v3S1hzNm8B-178" edge="1">
          <mxGeometry x="-535" y="485" width="80" height="20" as="geometry" />
        </mxCell>
        <mxCell id="Lgd5MnXTCpF7ymXs19jn-1" value="max pooling + avg pooling&lt;div&gt;平衡全局和局部 style&lt;/div&gt;" style="whiteSpace=wrap;html=1;shape=partialRectangle;top=0;left=0;bottom=1;right=0;points=[[0,1],[1,1]];fillColor=none;align=center;verticalAlign=bottom;routingCenterY=0.5;snapToPoint=1;recursiveResize=0;autosize=1;treeFolding=1;treeMoving=1;newEdgeStyle={&quot;edgeStyle&quot;:&quot;entityRelationEdgeStyle&quot;,&quot;startArrow&quot;:&quot;none&quot;,&quot;endArrow&quot;:&quot;none&quot;,&quot;segment&quot;:10,&quot;curved&quot;:1,&quot;sourcePerimeterSpacing&quot;:0,&quot;targetPerimeterSpacing&quot;:0};fontFamily=Comic Sans MS;" parent="1" vertex="1">
          <mxGeometry x="695" y="5" width="180" height="40" as="geometry" />
        </mxCell>
        <mxCell id="Lgd5MnXTCpF7ymXs19jn-3" value="DS-Font" style="whiteSpace=wrap;html=1;shape=partialRectangle;top=0;left=0;bottom=1;right=0;points=[[0,1],[1,1]];fillColor=none;align=center;verticalAlign=bottom;routingCenterY=0.5;snapToPoint=1;recursiveResize=0;autosize=1;treeFolding=1;treeMoving=1;newEdgeStyle={&quot;edgeStyle&quot;:&quot;entityRelationEdgeStyle&quot;,&quot;startArrow&quot;:&quot;none&quot;,&quot;endArrow&quot;:&quot;none&quot;,&quot;segment&quot;:10,&quot;curved&quot;:1,&quot;sourcePerimeterSpacing&quot;:0,&quot;targetPerimeterSpacing&quot;:0};fontFamily=Comic Sans MS;" parent="1" vertex="1">
          <mxGeometry x="917" y="-10" width="90" height="30" as="geometry" />
        </mxCell>
        <mxCell id="Lgd5MnXTCpF7ymXs19jn-4" value="" style="edgeStyle=entityRelationEdgeStyle;startArrow=none;endArrow=none;segment=10;curved=1;sourcePerimeterSpacing=0;targetPerimeterSpacing=0;rounded=0;fontFamily=Comic Sans MS;" parent="1" source="Lgd5MnXTCpF7ymXs19jn-1" target="Lgd5MnXTCpF7ymXs19jn-3" edge="1">
          <mxGeometry x="835" y="658" width="80" height="20" as="geometry" />
        </mxCell>
        <mxCell id="Lgd5MnXTCpF7ymXs19jn-7" value="DS-Font&lt;div&gt;将同属于一个 font 的 style 做聚类作为正样本&lt;/div&gt;" style="whiteSpace=wrap;html=1;shape=partialRectangle;top=0;left=0;bottom=1;right=0;points=[[0,1],[1,1]];fillColor=none;align=center;verticalAlign=bottom;routingCenterY=0.5;snapToPoint=1;recursiveResize=0;autosize=1;treeFolding=1;treeMoving=1;newEdgeStyle={&quot;edgeStyle&quot;:&quot;entityRelationEdgeStyle&quot;,&quot;startArrow&quot;:&quot;none&quot;,&quot;endArrow&quot;:&quot;none&quot;,&quot;segment&quot;:10,&quot;curved&quot;:1,&quot;sourcePerimeterSpacing&quot;:0,&quot;targetPerimeterSpacing&quot;:0};fontFamily=Comic Sans MS;" parent="1" vertex="1">
          <mxGeometry x="-800" y="-150" width="290" height="40" as="geometry" />
        </mxCell>
        <mxCell id="Lgd5MnXTCpF7ymXs19jn-8" value="" style="edgeStyle=entityRelationEdgeStyle;startArrow=none;endArrow=none;segment=10;curved=1;sourcePerimeterSpacing=0;targetPerimeterSpacing=0;rounded=0;fontFamily=Comic Sans MS;" parent="1" source="_G-EZJmPh7v3S1hzNm8B-103" target="Lgd5MnXTCpF7ymXs19jn-7" edge="1">
          <mxGeometry x="-620" y="-155" width="80" height="20" as="geometry" />
        </mxCell>
        <mxCell id="Lgd5MnXTCpF7ymXs19jn-9" value="FTransGAN 数据集" style="whiteSpace=wrap;html=1;shape=partialRectangle;top=0;left=0;bottom=1;right=0;points=[[0,1],[1,1]];fillColor=none;align=center;verticalAlign=bottom;routingCenterY=0.5;snapToPoint=1;recursiveResize=0;autosize=1;treeFolding=1;treeMoving=1;newEdgeStyle={&quot;edgeStyle&quot;:&quot;entityRelationEdgeStyle&quot;,&quot;startArrow&quot;:&quot;none&quot;,&quot;endArrow&quot;:&quot;none&quot;,&quot;segment&quot;:10,&quot;curved&quot;:1,&quot;sourcePerimeterSpacing&quot;:0,&quot;targetPerimeterSpacing&quot;:0};fontFamily=Comic Sans MS;" parent="1" vertex="1">
          <mxGeometry x="-205" y="725" width="150" height="30" as="geometry" />
        </mxCell>
        <mxCell id="Lgd5MnXTCpF7ymXs19jn-10" value="" style="edgeStyle=entityRelationEdgeStyle;startArrow=none;endArrow=none;segment=10;curved=1;sourcePerimeterSpacing=0;targetPerimeterSpacing=0;rounded=0;fontFamily=Comic Sans MS;" parent="1" source="_G-EZJmPh7v3S1hzNm8B-19" target="Lgd5MnXTCpF7ymXs19jn-9" edge="1">
          <mxGeometry x="-180" y="590" width="80" height="20" as="geometry" />
        </mxCell>
        <mxCell id="Lgd5MnXTCpF7ymXs19jn-15" value="DS-Font 中也有使用" style="whiteSpace=wrap;html=1;shape=partialRectangle;top=0;left=0;bottom=1;right=0;points=[[0,1],[1,1]];fillColor=none;align=center;verticalAlign=bottom;routingCenterY=0.5;snapToPoint=1;recursiveResize=0;autosize=1;treeFolding=1;treeMoving=1;newEdgeStyle={&quot;edgeStyle&quot;:&quot;entityRelationEdgeStyle&quot;,&quot;startArrow&quot;:&quot;none&quot;,&quot;endArrow&quot;:&quot;none&quot;,&quot;segment&quot;:10,&quot;curved&quot;:1,&quot;sourcePerimeterSpacing&quot;:0,&quot;targetPerimeterSpacing&quot;:0};fontFamily=Comic Sans MS;" parent="1" vertex="1">
          <mxGeometry x="-390" y="715" width="150" height="30" as="geometry" />
        </mxCell>
        <mxCell id="Lgd5MnXTCpF7ymXs19jn-16" value="" style="edgeStyle=entityRelationEdgeStyle;startArrow=none;endArrow=none;segment=10;curved=1;sourcePerimeterSpacing=0;targetPerimeterSpacing=0;rounded=0;fontFamily=Comic Sans MS;" parent="1" source="Lgd5MnXTCpF7ymXs19jn-9" target="Lgd5MnXTCpF7ymXs19jn-15" edge="1">
          <mxGeometry x="-360" y="625" width="80" height="20" as="geometry" />
        </mxCell>
        <mxCell id="Lgd5MnXTCpF7ymXs19jn-19" value="CF-Font&lt;div&gt;通过聚类自适应选择 content image&lt;/div&gt;" style="whiteSpace=wrap;html=1;shape=partialRectangle;top=0;left=0;bottom=1;right=0;points=[[0,1],[1,1]];fillColor=none;align=center;verticalAlign=bottom;routingCenterY=0.5;snapToPoint=1;recursiveResize=0;autosize=1;treeFolding=1;treeMoving=1;newEdgeStyle={&quot;edgeStyle&quot;:&quot;entityRelationEdgeStyle&quot;,&quot;startArrow&quot;:&quot;none&quot;,&quot;endArrow&quot;:&quot;none&quot;,&quot;segment&quot;:10,&quot;curved&quot;:1,&quot;sourcePerimeterSpacing&quot;:0,&quot;targetPerimeterSpacing&quot;:0};fontFamily=Comic Sans MS;" parent="1" vertex="1">
          <mxGeometry x="895" y="-325" width="230" height="40" as="geometry" />
        </mxCell>
        <mxCell id="Lgd5MnXTCpF7ymXs19jn-20" value="" style="edgeStyle=entityRelationEdgeStyle;startArrow=none;endArrow=none;segment=10;curved=1;sourcePerimeterSpacing=0;targetPerimeterSpacing=0;rounded=0;fontFamily=Comic Sans MS;" parent="1" source="_G-EZJmPh7v3S1hzNm8B-45" target="Lgd5MnXTCpF7ymXs19jn-19" edge="1">
          <mxGeometry x="917" y="-195" width="80" height="20" as="geometry" />
        </mxCell>
        <mxCell id="Lgd5MnXTCpF7ymXs19jn-21" value="&lt;div&gt;CF-Font&lt;/div&gt;在推理前使用 reference image 微调 style encoding" style="whiteSpace=wrap;html=1;shape=partialRectangle;top=0;left=0;bottom=1;right=0;points=[[0,1],[1,1]];fillColor=none;align=center;verticalAlign=bottom;routingCenterY=0.5;snapToPoint=1;recursiveResize=0;autosize=1;treeFolding=1;treeMoving=1;newEdgeStyle={&quot;edgeStyle&quot;:&quot;entityRelationEdgeStyle&quot;,&quot;startArrow&quot;:&quot;none&quot;,&quot;endArrow&quot;:&quot;none&quot;,&quot;segment&quot;:10,&quot;curved&quot;:1,&quot;sourcePerimeterSpacing&quot;:0,&quot;targetPerimeterSpacing&quot;:0};fontFamily=Comic Sans MS;" parent="1" vertex="1">
          <mxGeometry x="630" y="885" width="320" height="40" as="geometry" />
        </mxCell>
        <mxCell id="Lgd5MnXTCpF7ymXs19jn-22" value="" style="edgeStyle=entityRelationEdgeStyle;startArrow=none;endArrow=none;segment=10;curved=1;sourcePerimeterSpacing=0;targetPerimeterSpacing=0;rounded=0;fontFamily=Comic Sans MS;" parent="1" source="_G-EZJmPh7v3S1hzNm8B-168" target="Lgd5MnXTCpF7ymXs19jn-21" edge="1">
          <mxGeometry x="665" y="785" width="80" height="20" as="geometry" />
        </mxCell>
        <mxCell id="Lgd5MnXTCpF7ymXs19jn-23" value="&lt;div&gt;CF-Font&lt;/div&gt;Projected Character Loss&lt;div&gt;将图像的 1D 投影视为概率分布&lt;/div&gt;" style="whiteSpace=wrap;html=1;shape=partialRectangle;top=0;left=0;bottom=1;right=0;points=[[0,1],[1,1]];fillColor=none;align=center;verticalAlign=bottom;routingCenterY=0.5;snapToPoint=1;recursiveResize=0;autosize=1;treeFolding=1;treeMoving=1;newEdgeStyle={&quot;edgeStyle&quot;:&quot;entityRelationEdgeStyle&quot;,&quot;startArrow&quot;:&quot;none&quot;,&quot;endArrow&quot;:&quot;none&quot;,&quot;segment&quot;:10,&quot;curved&quot;:1,&quot;sourcePerimeterSpacing&quot;:0,&quot;targetPerimeterSpacing&quot;:0};fontFamily=Comic Sans MS;" parent="1" vertex="1">
          <mxGeometry x="-285" y="510" width="210" height="60" as="geometry" />
        </mxCell>
        <mxCell id="Lgd5MnXTCpF7ymXs19jn-24" value="" style="edgeStyle=entityRelationEdgeStyle;startArrow=none;endArrow=none;segment=10;curved=1;sourcePerimeterSpacing=0;targetPerimeterSpacing=0;rounded=0;fontFamily=Comic Sans MS;" parent="1" source="_G-EZJmPh7v3S1hzNm8B-17" target="Lgd5MnXTCpF7ymXs19jn-23" edge="1">
          <mxGeometry x="-205" y="325" width="80" height="20" as="geometry" />
        </mxCell>
        <mxCell id="Lgd5MnXTCpF7ymXs19jn-26" value="&lt;div&gt;通过 content image 与 reference image 在 glyph 上的形似度赋予权重&lt;/div&gt;" style="whiteSpace=wrap;html=1;shape=partialRectangle;top=0;left=0;bottom=1;right=0;points=[[0,1],[1,1]];fillColor=none;align=center;verticalAlign=bottom;routingCenterY=0.5;snapToPoint=1;recursiveResize=0;autosize=1;treeFolding=1;treeMoving=1;newEdgeStyle={&quot;edgeStyle&quot;:&quot;entityRelationEdgeStyle&quot;,&quot;startArrow&quot;:&quot;none&quot;,&quot;endArrow&quot;:&quot;none&quot;,&quot;segment&quot;:10,&quot;curved&quot;:1,&quot;sourcePerimeterSpacing&quot;:0,&quot;targetPerimeterSpacing&quot;:0};fontFamily=Comic Sans MS;" parent="1" vertex="1">
          <mxGeometry x="575" y="660" width="420" height="30" as="geometry" />
        </mxCell>
        <mxCell id="Lgd5MnXTCpF7ymXs19jn-27" value="" style="edgeStyle=entityRelationEdgeStyle;startArrow=none;endArrow=none;segment=10;curved=1;sourcePerimeterSpacing=0;targetPerimeterSpacing=0;rounded=0;fontFamily=Comic Sans MS;" parent="1" source="_G-EZJmPh7v3S1hzNm8B-25" target="Lgd5MnXTCpF7ymXs19jn-26" edge="1">
          <mxGeometry x="630" y="475" width="80" height="20" as="geometry" />
        </mxCell>
        <mxCell id="Lgd5MnXTCpF7ymXs19jn-28" value="FontDiffuser" style="whiteSpace=wrap;html=1;shape=partialRectangle;top=0;left=0;bottom=1;right=0;points=[[0,1],[1,1]];fillColor=none;align=center;verticalAlign=bottom;routingCenterY=0.5;snapToPoint=1;recursiveResize=0;autosize=1;treeFolding=1;treeMoving=1;newEdgeStyle={&quot;edgeStyle&quot;:&quot;entityRelationEdgeStyle&quot;,&quot;startArrow&quot;:&quot;none&quot;,&quot;endArrow&quot;:&quot;none&quot;,&quot;segment&quot;:10,&quot;curved&quot;:1,&quot;sourcePerimeterSpacing&quot;:0,&quot;targetPerimeterSpacing&quot;:0};fontFamily=Comic Sans MS;" parent="1" vertex="1">
          <mxGeometry x="-405" y="-85" width="110" height="30" as="geometry" />
        </mxCell>
        <mxCell id="Lgd5MnXTCpF7ymXs19jn-29" value="" style="edgeStyle=entityRelationEdgeStyle;startArrow=none;endArrow=none;segment=10;curved=1;sourcePerimeterSpacing=0;targetPerimeterSpacing=0;rounded=0;fontFamily=Comic Sans MS;" parent="1" source="_G-EZJmPh7v3S1hzNm8B-95" target="Lgd5MnXTCpF7ymXs19jn-28" edge="1">
          <mxGeometry x="-395" y="-55" width="80" height="20" as="geometry" />
        </mxCell>
        <mxCell id="Lgd5MnXTCpF7ymXs19jn-30" value="FontDiffuser" style="whiteSpace=wrap;html=1;shape=partialRectangle;top=0;left=0;bottom=1;right=0;points=[[0,1],[1,1]];fillColor=none;align=center;verticalAlign=bottom;routingCenterY=0.5;snapToPoint=1;recursiveResize=0;autosize=1;treeFolding=1;treeMoving=1;newEdgeStyle={&quot;edgeStyle&quot;:&quot;entityRelationEdgeStyle&quot;,&quot;startArrow&quot;:&quot;none&quot;,&quot;endArrow&quot;:&quot;none&quot;,&quot;segment&quot;:10,&quot;curved&quot;:1,&quot;sourcePerimeterSpacing&quot;:0,&quot;targetPerimeterSpacing&quot;:0};fontFamily=Comic Sans MS;" parent="1" vertex="1">
          <mxGeometry x="760" y="394" width="110" height="30" as="geometry" />
        </mxCell>
        <mxCell id="Lgd5MnXTCpF7ymXs19jn-31" value="" style="edgeStyle=entityRelationEdgeStyle;startArrow=none;endArrow=none;segment=10;curved=1;sourcePerimeterSpacing=0;targetPerimeterSpacing=0;rounded=0;fontFamily=Comic Sans MS;" parent="1" source="_G-EZJmPh7v3S1hzNm8B-27" target="Lgd5MnXTCpF7ymXs19jn-30" edge="1">
          <mxGeometry x="780" y="404" width="80" height="20" as="geometry" />
        </mxCell>
        <mxCell id="Lgd5MnXTCpF7ymXs19jn-32" value="&lt;div&gt;FontDiffuser 提出&lt;/div&gt;不同的笔画数量将文字的生成难度分级" style="whiteSpace=wrap;html=1;shape=partialRectangle;top=0;left=0;bottom=1;right=0;points=[[0,1],[1,1]];fillColor=none;align=center;verticalAlign=bottom;routingCenterY=0.5;snapToPoint=1;recursiveResize=0;autosize=1;treeFolding=1;treeMoving=1;newEdgeStyle={&quot;edgeStyle&quot;:&quot;entityRelationEdgeStyle&quot;,&quot;startArrow&quot;:&quot;none&quot;,&quot;endArrow&quot;:&quot;none&quot;,&quot;segment&quot;:10,&quot;curved&quot;:1,&quot;sourcePerimeterSpacing&quot;:0,&quot;targetPerimeterSpacing&quot;:0};fontFamily=Comic Sans MS;" parent="1" vertex="1">
          <mxGeometry x="-335" y="1035" width="240" height="40" as="geometry" />
        </mxCell>
        <mxCell id="Lgd5MnXTCpF7ymXs19jn-33" value="" style="edgeStyle=entityRelationEdgeStyle;startArrow=none;endArrow=none;segment=10;curved=1;sourcePerimeterSpacing=0;targetPerimeterSpacing=0;rounded=0;fontFamily=Comic Sans MS;" parent="1" source="_G-EZJmPh7v3S1hzNm8B-15" target="Lgd5MnXTCpF7ymXs19jn-32" edge="1">
          <mxGeometry x="-215" y="915" width="80" height="20" as="geometry" />
        </mxCell>
        <mxCell id="Lgd5MnXTCpF7ymXs19jn-34" value="FontDiffuser&lt;div&gt;特别地，使用在对比学习模块中&lt;/div&gt;" style="whiteSpace=wrap;html=1;shape=partialRectangle;top=0;left=0;bottom=1;right=0;points=[[0,1],[1,1]];fillColor=none;align=center;verticalAlign=bottom;routingCenterY=0.5;snapToPoint=1;recursiveResize=0;autosize=1;treeFolding=1;treeMoving=1;newEdgeStyle={&quot;edgeStyle&quot;:&quot;entityRelationEdgeStyle&quot;,&quot;startArrow&quot;:&quot;none&quot;,&quot;endArrow&quot;:&quot;none&quot;,&quot;segment&quot;:10,&quot;curved&quot;:1,&quot;sourcePerimeterSpacing&quot;:0,&quot;targetPerimeterSpacing&quot;:0};fontFamily=Comic Sans MS;" parent="1" vertex="1">
          <mxGeometry x="917" y="20" width="210" height="40" as="geometry" />
        </mxCell>
        <mxCell id="Lgd5MnXTCpF7ymXs19jn-35" value="" style="edgeStyle=entityRelationEdgeStyle;startArrow=none;endArrow=none;segment=10;curved=1;sourcePerimeterSpacing=0;targetPerimeterSpacing=0;rounded=0;fontFamily=Comic Sans MS;" parent="1" source="Lgd5MnXTCpF7ymXs19jn-1" target="Lgd5MnXTCpF7ymXs19jn-34" edge="1">
          <mxGeometry x="955" y="15" width="80" height="20" as="geometry" />
        </mxCell>
        <mxCell id="Lgd5MnXTCpF7ymXs19jn-36" value="IF-Font，2308 VQ-Font&lt;div&gt;根据 IDS 划分 12 中常用的汉字空间结构&lt;/div&gt;" style="whiteSpace=wrap;html=1;shape=partialRectangle;top=0;left=0;bottom=1;right=0;points=[[0,1],[1,1]];fillColor=none;align=center;verticalAlign=bottom;routingCenterY=0.5;snapToPoint=1;recursiveResize=0;autosize=1;treeFolding=1;treeMoving=1;newEdgeStyle={&quot;edgeStyle&quot;:&quot;entityRelationEdgeStyle&quot;,&quot;startArrow&quot;:&quot;none&quot;,&quot;endArrow&quot;:&quot;none&quot;,&quot;segment&quot;:10,&quot;curved&quot;:1,&quot;sourcePerimeterSpacing&quot;:0,&quot;targetPerimeterSpacing&quot;:0};fontFamily=Comic Sans MS;" parent="1" vertex="1">
          <mxGeometry x="895" y="-370" width="260" height="40" as="geometry" />
        </mxCell>
        <mxCell id="Lgd5MnXTCpF7ymXs19jn-37" value="" style="edgeStyle=entityRelationEdgeStyle;startArrow=none;endArrow=none;segment=10;curved=1;sourcePerimeterSpacing=0;targetPerimeterSpacing=0;rounded=0;fontFamily=Comic Sans MS;" parent="1" source="_G-EZJmPh7v3S1hzNm8B-45" target="Lgd5MnXTCpF7ymXs19jn-36" edge="1">
          <mxGeometry x="917" y="-195" width="80" height="20" as="geometry" />
        </mxCell>
        <mxCell id="Lgd5MnXTCpF7ymXs19jn-40" value="2309 VQ-Font" style="whiteSpace=wrap;html=1;shape=partialRectangle;top=0;left=0;bottom=1;right=0;points=[[0,1],[1,1]];fillColor=none;align=center;verticalAlign=bottom;routingCenterY=0.5;snapToPoint=1;recursiveResize=0;autosize=1;treeFolding=1;treeMoving=1;newEdgeStyle={&quot;edgeStyle&quot;:&quot;entityRelationEdgeStyle&quot;,&quot;startArrow&quot;:&quot;none&quot;,&quot;endArrow&quot;:&quot;none&quot;,&quot;segment&quot;:10,&quot;curved&quot;:1,&quot;sourcePerimeterSpacing&quot;:0,&quot;targetPerimeterSpacing&quot;:0};fontFamily=Comic Sans MS;" parent="1" vertex="1">
          <mxGeometry x="1022" y="642" width="120" height="30" as="geometry" />
        </mxCell>
        <mxCell id="Lgd5MnXTCpF7ymXs19jn-41" value="" style="edgeStyle=entityRelationEdgeStyle;startArrow=none;endArrow=none;segment=10;curved=1;sourcePerimeterSpacing=0;targetPerimeterSpacing=0;rounded=0;fontFamily=Comic Sans MS;" parent="1" source="Lgd5MnXTCpF7ymXs19jn-26" target="Lgd5MnXTCpF7ymXs19jn-40" edge="1">
          <mxGeometry x="1060" y="665" width="80" height="20" as="geometry" />
        </mxCell>
        <mxCell id="Lgd5MnXTCpF7ymXs19jn-42" value="IF-Font&lt;div&gt;通过 IDS 的相似度计算权重&lt;/div&gt;" style="whiteSpace=wrap;html=1;shape=partialRectangle;top=0;left=0;bottom=1;right=0;points=[[0,1],[1,1]];fillColor=none;align=center;verticalAlign=bottom;routingCenterY=0.5;snapToPoint=1;recursiveResize=0;autosize=1;treeFolding=1;treeMoving=1;newEdgeStyle={&quot;edgeStyle&quot;:&quot;entityRelationEdgeStyle&quot;,&quot;startArrow&quot;:&quot;none&quot;,&quot;endArrow&quot;:&quot;none&quot;,&quot;segment&quot;:10,&quot;curved&quot;:1,&quot;sourcePerimeterSpacing&quot;:0,&quot;targetPerimeterSpacing&quot;:0};fontFamily=Comic Sans MS;" parent="1" vertex="1">
          <mxGeometry x="1020" y="672" width="190" height="40" as="geometry" />
        </mxCell>
        <mxCell id="Lgd5MnXTCpF7ymXs19jn-43" value="" style="edgeStyle=entityRelationEdgeStyle;startArrow=none;endArrow=none;segment=10;curved=1;sourcePerimeterSpacing=0;targetPerimeterSpacing=0;rounded=0;fontFamily=Comic Sans MS;" parent="1" source="Lgd5MnXTCpF7ymXs19jn-26" target="Lgd5MnXTCpF7ymXs19jn-42" edge="1">
          <mxGeometry x="1060" y="665" width="80" height="20" as="geometry" />
        </mxCell>
        <mxCell id="Lgd5MnXTCpF7ymXs19jn-44" value="在不同的 reference image 数量上进行评估" style="whiteSpace=wrap;html=1;shape=partialRectangle;top=0;left=0;bottom=1;right=0;points=[[0,1],[1,1]];fillColor=none;align=center;verticalAlign=bottom;routingCenterY=0.5;snapToPoint=1;recursiveResize=0;autosize=1;treeFolding=1;treeMoving=1;newEdgeStyle={&quot;edgeStyle&quot;:&quot;entityRelationEdgeStyle&quot;,&quot;startArrow&quot;:&quot;none&quot;,&quot;endArrow&quot;:&quot;none&quot;,&quot;segment&quot;:10,&quot;curved&quot;:1,&quot;sourcePerimeterSpacing&quot;:0,&quot;targetPerimeterSpacing&quot;:0};fontFamily=Comic Sans MS;" parent="1" vertex="1">
          <mxGeometry x="-360" y="1080" width="270" height="30" as="geometry" />
        </mxCell>
        <mxCell id="Lgd5MnXTCpF7ymXs19jn-45" value="" style="edgeStyle=entityRelationEdgeStyle;startArrow=none;endArrow=none;segment=10;curved=1;sourcePerimeterSpacing=0;targetPerimeterSpacing=0;rounded=0;fontFamily=Comic Sans MS;" parent="1" source="_G-EZJmPh7v3S1hzNm8B-15" target="Lgd5MnXTCpF7ymXs19jn-44" edge="1">
          <mxGeometry x="-215" y="915" width="80" height="20" as="geometry" />
        </mxCell>
        <mxCell id="Lgd5MnXTCpF7ymXs19jn-46" value="&lt;div&gt;MSD-Font&lt;/div&gt;在扩散过程中，将 content 生成和 style 迁移分为独立的扩散网络" style="whiteSpace=wrap;html=1;shape=partialRectangle;top=0;left=0;bottom=1;right=0;points=[[0,1],[1,1]];fillColor=none;align=center;verticalAlign=bottom;routingCenterY=0.5;snapToPoint=1;recursiveResize=0;autosize=1;treeFolding=1;treeMoving=1;newEdgeStyle={&quot;edgeStyle&quot;:&quot;entityRelationEdgeStyle&quot;,&quot;startArrow&quot;:&quot;none&quot;,&quot;endArrow&quot;:&quot;none&quot;,&quot;segment&quot;:10,&quot;curved&quot;:1,&quot;sourcePerimeterSpacing&quot;:0,&quot;targetPerimeterSpacing&quot;:0};fontFamily=Comic Sans MS;" parent="1" vertex="1">
          <mxGeometry x="572" y="705" width="390" height="40" as="geometry" />
        </mxCell>
        <mxCell id="Lgd5MnXTCpF7ymXs19jn-47" value="" style="edgeStyle=entityRelationEdgeStyle;startArrow=none;endArrow=none;segment=10;curved=1;sourcePerimeterSpacing=0;targetPerimeterSpacing=0;rounded=0;fontFamily=Comic Sans MS;" parent="1" source="_G-EZJmPh7v3S1hzNm8B-25" target="Lgd5MnXTCpF7ymXs19jn-46" edge="1">
          <mxGeometry x="630" y="475" width="80" height="20" as="geometry" />
        </mxCell>
        <mxCell id="Lgd5MnXTCpF7ymXs19jn-48" value="CG-GAN&lt;div&gt;attn 机制，依靠损失函数间接关注不同的 component&lt;/div&gt;" style="whiteSpace=wrap;html=1;shape=partialRectangle;top=0;left=0;bottom=1;right=0;points=[[0,1],[1,1]];fillColor=none;align=center;verticalAlign=bottom;routingCenterY=0.5;snapToPoint=1;recursiveResize=0;autosize=1;treeFolding=1;treeMoving=1;newEdgeStyle={&quot;edgeStyle&quot;:&quot;entityRelationEdgeStyle&quot;,&quot;startArrow&quot;:&quot;none&quot;,&quot;endArrow&quot;:&quot;none&quot;,&quot;segment&quot;:10,&quot;curved&quot;:1,&quot;sourcePerimeterSpacing&quot;:0,&quot;targetPerimeterSpacing&quot;:0};fontFamily=Comic Sans MS;" parent="1" vertex="1">
          <mxGeometry x="-570" y="-5" width="320" height="40" as="geometry" />
        </mxCell>
        <mxCell id="Lgd5MnXTCpF7ymXs19jn-49" value="" style="edgeStyle=entityRelationEdgeStyle;startArrow=none;endArrow=none;segment=10;curved=1;sourcePerimeterSpacing=0;targetPerimeterSpacing=0;rounded=0;fontFamily=Comic Sans MS;" parent="1" source="_G-EZJmPh7v3S1hzNm8B-109" target="Lgd5MnXTCpF7ymXs19jn-48" edge="1">
          <mxGeometry x="-370" y="-15" width="80" height="20" as="geometry" />
        </mxCell>
      </root>
    </mxGraphModel>
  </diagram>
</mxfile>
